<mxfile host="app.diagrams.net" agent="Mozilla/5.0 (Windows NT 10.0; Win64; x64) AppleWebKit/537.36 (KHTML, like Gecko) Chrome/134.0.0.0 Safari/537.36" version="26.0.14">
  <diagram name="Page-1" id="OFcMhlDsFQPbEhYitsfN">
    <mxGraphModel dx="979" dy="528" grid="1" gridSize="10" guides="1" tooltips="1" connect="1" arrows="1" fold="1" page="1" pageScale="1" pageWidth="827" pageHeight="1169" math="0" shadow="0">
      <root>
        <mxCell id="0" />
        <mxCell id="1" parent="0" />
        <mxCell id="pVB1kBmUra2NY2BU2NWc-1" value="" style="rounded=1;whiteSpace=wrap;html=1;fillColor=none;strokeColor=#67AB9F;strokeWidth=2;" parent="1" vertex="1">
          <mxGeometry x="140" y="70" width="240" height="80" as="geometry" />
        </mxCell>
        <mxCell id="pVB1kBmUra2NY2BU2NWc-2" value="Data Collection" style="rounded=1;whiteSpace=wrap;html=1;fillColor=#D5E8D4;strokeColor=#67AB9F;strokeWidth=2;fontFamily=Times New Roman;fontStyle=0;gradientColor=none;glass=0;" parent="1" vertex="1">
          <mxGeometry x="200" y="150" width="120" height="20" as="geometry" />
        </mxCell>
        <mxCell id="pVB1kBmUra2NY2BU2NWc-4" value="" style="shape=image;verticalLabelPosition=bottom;labelBackgroundColor=default;verticalAlign=top;aspect=fixed;imageAspect=0;image=https://upload.wikimedia.org/wikipedia/commons/0/04/ChatGPT_logo.svg;" parent="1" vertex="1">
          <mxGeometry x="210" y="80" width="60" height="60" as="geometry" />
        </mxCell>
        <mxCell id="pVB1kBmUra2NY2BU2NWc-25" style="edgeStyle=orthogonalEdgeStyle;rounded=0;orthogonalLoop=1;jettySize=auto;html=1;entryX=0;entryY=0.5;entryDx=0;entryDy=0;endArrow=none;endFill=0;dashed=1;dashPattern=1 1;strokeColor=#67AB9F;strokeWidth=2;" parent="1" source="pVB1kBmUra2NY2BU2NWc-5" target="pVB1kBmUra2NY2BU2NWc-23" edge="1">
          <mxGeometry relative="1" as="geometry" />
        </mxCell>
        <mxCell id="pVB1kBmUra2NY2BU2NWc-5" value="" style="rounded=1;whiteSpace=wrap;html=1;fillColor=none;strokeColor=#67AB9F;strokeWidth=2;arcSize=9;" parent="1" vertex="1">
          <mxGeometry x="330" y="200" width="140" height="160" as="geometry" />
        </mxCell>
        <mxCell id="pVB1kBmUra2NY2BU2NWc-6" value="Backend" style="rounded=1;whiteSpace=wrap;html=1;fillColor=#D5E8D4;strokeColor=#67AB9F;strokeWidth=2;fontFamily=Times New Roman;fontStyle=0;gradientColor=none;glass=0;" parent="1" vertex="1">
          <mxGeometry x="340" y="360" width="120" height="20" as="geometry" />
        </mxCell>
        <mxCell id="pVB1kBmUra2NY2BU2NWc-7" value="" style="rounded=1;whiteSpace=wrap;html=1;fillColor=none;strokeColor=#67AB9F;strokeWidth=2;arcSize=9;" parent="1" vertex="1">
          <mxGeometry x="50" y="200" width="140" height="160" as="geometry" />
        </mxCell>
        <mxCell id="pVB1kBmUra2NY2BU2NWc-8" value="Recommendations" style="rounded=1;whiteSpace=wrap;html=1;fillColor=#D5E8D4;strokeColor=#67AB9F;strokeWidth=2;fontFamily=Times New Roman;fontStyle=0;gradientColor=none;glass=0;" parent="1" vertex="1">
          <mxGeometry x="60" y="360" width="120" height="20" as="geometry" />
        </mxCell>
        <mxCell id="pVB1kBmUra2NY2BU2NWc-9" value="" style="rounded=1;whiteSpace=wrap;html=1;fillColor=none;strokeColor=#67AB9F;strokeWidth=2;arcSize=9;" parent="1" vertex="1">
          <mxGeometry x="200" y="200" width="120" height="80" as="geometry" />
        </mxCell>
        <mxCell id="pVB1kBmUra2NY2BU2NWc-10" value="Database" style="rounded=1;whiteSpace=wrap;html=1;fillColor=#D5E8D4;strokeColor=#67AB9F;strokeWidth=2;fontFamily=Times New Roman;fontStyle=0;gradientColor=none;glass=0;" parent="1" vertex="1">
          <mxGeometry x="220" y="280" width="80" height="20" as="geometry" />
        </mxCell>
        <mxCell id="pVB1kBmUra2NY2BU2NWc-11" value="" style="shape=image;verticalLabelPosition=bottom;labelBackgroundColor=default;verticalAlign=top;aspect=fixed;imageAspect=0;image=https://upload.wikimedia.org/wikipedia/commons/2/29/Postgresql_elephant.svg;" parent="1" vertex="1">
          <mxGeometry x="210" y="210" width="58.18" height="60" as="geometry" />
        </mxCell>
        <mxCell id="pVB1kBmUra2NY2BU2NWc-12" value="" style="endArrow=none;html=1;rounded=0;exitX=1;exitY=0.5;exitDx=0;exitDy=0;strokeColor=#67AB9F;strokeWidth=2;dashed=1;dashPattern=1 1;" parent="1" source="pVB1kBmUra2NY2BU2NWc-9" edge="1">
          <mxGeometry width="50" height="50" relative="1" as="geometry">
            <mxPoint x="300" y="290" as="sourcePoint" />
            <mxPoint x="330" y="240" as="targetPoint" />
          </mxGeometry>
        </mxCell>
        <mxCell id="pVB1kBmUra2NY2BU2NWc-14" value="" style="endArrow=none;html=1;rounded=0;exitX=1;exitY=0.5;exitDx=0;exitDy=0;strokeColor=#67AB9F;strokeWidth=2;dashed=1;dashPattern=1 1;" parent="1" edge="1">
          <mxGeometry width="50" height="50" relative="1" as="geometry">
            <mxPoint x="190" y="239.77" as="sourcePoint" />
            <mxPoint x="200" y="240" as="targetPoint" />
          </mxGeometry>
        </mxCell>
        <mxCell id="pVB1kBmUra2NY2BU2NWc-15" value="" style="endArrow=none;dashed=1;html=1;rounded=0;exitX=1;exitY=0.75;exitDx=0;exitDy=0;entryX=0;entryY=0.75;entryDx=0;entryDy=0;strokeWidth=2;strokeColor=#67AB9F;dashPattern=1 1;" parent="1" source="pVB1kBmUra2NY2BU2NWc-7" target="pVB1kBmUra2NY2BU2NWc-5" edge="1">
          <mxGeometry width="50" height="50" relative="1" as="geometry">
            <mxPoint x="300" y="290" as="sourcePoint" />
            <mxPoint x="350" y="240" as="targetPoint" />
          </mxGeometry>
        </mxCell>
        <mxCell id="pVB1kBmUra2NY2BU2NWc-16" value="" style="endArrow=none;dashed=1;html=1;dashPattern=1 1;strokeWidth=2;rounded=0;entryX=0.5;entryY=1;entryDx=0;entryDy=0;exitX=0.5;exitY=0;exitDx=0;exitDy=0;strokeColor=#67AB9F;" parent="1" source="pVB1kBmUra2NY2BU2NWc-9" target="pVB1kBmUra2NY2BU2NWc-2" edge="1">
          <mxGeometry width="50" height="50" relative="1" as="geometry">
            <mxPoint x="280" y="220" as="sourcePoint" />
            <mxPoint x="330" y="170" as="targetPoint" />
          </mxGeometry>
        </mxCell>
        <mxCell id="pVB1kBmUra2NY2BU2NWc-17" value="vecto.rs" style="rounded=1;whiteSpace=wrap;html=1;horizontal=1;fontFamily=Helvetica;textDirection=vertical-lr;" parent="1" vertex="1">
          <mxGeometry x="280" y="210" width="30" height="60" as="geometry" />
        </mxCell>
        <mxCell id="pVB1kBmUra2NY2BU2NWc-21" value="" style="group" parent="1" vertex="1" connectable="0">
          <mxGeometry x="225" y="326.7" width="70" height="33.3" as="geometry" />
        </mxCell>
        <mxCell id="pVB1kBmUra2NY2BU2NWc-20" value="" style="rounded=0;whiteSpace=wrap;html=1;fillColor=#4D4D4D;strokeColor=none;" parent="pVB1kBmUra2NY2BU2NWc-21" vertex="1">
          <mxGeometry width="70" height="33.3" as="geometry" />
        </mxCell>
        <mxCell id="pVB1kBmUra2NY2BU2NWc-19" value="" style="shape=image;verticalLabelPosition=bottom;labelBackgroundColor=default;verticalAlign=top;aspect=fixed;imageAspect=0;image=data:image/svg+xml,PHN2ZyB4bWxuczp4bGluaz0iaHR0cDovL3d3dy53My5vcmcvMTk5OS94bGluayIgeG1sbnM9Imh0dHA6Ly93d3cudzMub3JnLzIwMDAvc3ZnIiB2aWV3Qm94PSIwIDAgMjg4IDEyMi4zMzMiIGlkPSJMYXllcl8xIj48c3R5bGU+LnN0MHtmaWxsOiNmZmZ9LnN0NXtmaWxsOiM3MGNhY2F9LnN0NSwuc3Q1Nywuc3Q1OSwuc3Q2Mywuc3Q4e2NsaXAtcGF0aDp1cmwoI1NWR0lEXzJfKX0uc3Q4e2ZpbGw6IzZkYzljOX0uc3Q1N3tmaWxsOiMwMGI1YjJ9LnN0NTl7ZmlsbDojMDBiM2IwfS5zdDYze2ZpbGw6IzAwYjBhZH0uc3Q3MHtjbGlwLXBhdGg6dXJsKCNTVkdJRF80Xyk7ZmlsbDojNmZjYWM5fTwvc3R5bGU+PHBhdGggZD0iTTMzLjg1OCAxMDIuNjk5cTMuMDQgNC4wODcgNy45MTIgNi41NSA0Ljg3NCAyLjQ2MiAxMC44NDggMi40NjMgNS4yNC0uMDAxIDguOTA4LTEuNTJ0NS45MjEtNC4xNHEyLjI1Mi0yLjYyIDMuMjUtNi4xMy45OTQtMy41MTMuOTk1LTcuNDkzdi04LjgwNGgtLjIxcS0zLjM1NSA1LjAzLTguMTc0IDcuMTI3LTQuODIyIDIuMDk2LTEwLjE2NiAyLjA5Ni01LjM0NiAwLTEwLjAwOS0xLjg4Ny00LjY2NS0xLjg4Ny04LjEyMi01LjE4Ny0zLjQ2LTMuMzAyLTUuNDUtNy45MTN0LTEuOTkxLTkuOTU2YzAtNS4zNDUuNjI5LTYuODgyIDEuODg2LTkuOTU3cTEuODg3LTQuNjExIDUuMTg4LTguMDcgMy4zLTMuNDU3IDcuODYtNS4zOTcgNC41Ni0xLjkzOSAxMC4wMS0xLjk0IDIuMTk5LjAwMiA0LjY2My40MiAyLjQ2MS40MiA0LjkyNSAxLjQ2OCAyLjQ2MiAxLjA0OCA0Ljg3NCAyLjg4MSAyLjQwOSAxLjgzNSA0LjUwNyA0LjY2NGguMjA5VjQzLjhoNi45MTd2NDguNjNxMCAzLjk4LS45OTYgOC40ODgtLjk5NiA0LjUwNi0zLjg3NyA4LjI4LTIuODg0IDMuNzczLTguMDE4IDYuMjg5UTYwLjU4MiAxMTggNTIuMzAzIDExOHEtNy4zMzcgMC0xMy4xLTIuNDEtNS43NjQtMi40MTItMTAuNDgtNy40NDF6bTEuMjU3LTM1LjAwNHEwIDMuODc4IDEuNDE2IDcuMjgzIDEuNDE0IDMuNDA4IDMuODc3IDUuOTc0YTE4LjggMTguOCAwIDAgMCA1Ljc2NCA0LjA4OHEzLjMwMSAxLjUyIDcuMTggMS41MiAzLjc3MiAwIDcuMTc5LTEuMzYzYTE5IDE5IDAgMCAwIDYuMDI1LTMuODI1cTIuNjItMi40NjIgNC4wMzYtNS45MjIgMS40MTMtMy40NTggMS4zMS03Ljc1NSAwLTMuODc3LTEuMjU4LTcuMjg0LTEuMjU4LTMuNDA1LTMuNjY4LTUuOTc0LTIuNDEyLTIuNTY3LTUuODctNC4wODd0LTcuNzU0LTEuNTJxLTMuODc5LjAwMS03LjE4IDEuNTJhMTguOCAxOC44IDAgMCAwLTUuNzY0IDQuMDg3cS0yLjQ2MyAyLjU3LTMuODc3IDUuOTc0LTEuNDE2IDMuNDA3LTEuNDE2IDcuMjg0TTEwNi44IDkyLjg0OGgtNy41NDVWMTguNjQ3SDEyMi4xcTExLjMxOCAwIDE3Ljg3IDQuOTI1IDYuNTUgNC45MjcgNi41NSAxNC44ODMgMCA3Ljc1Ni00Ljg3MyAxMy4wNDgtNC44NzUgNS4yOTMtMTQuMDk2IDYuMTNsMjEuMzggMzUuMjE1aC05LjIyNGwtMjAuMzMxLTM0LjQ4SDEwNi44em0wLTQxLjM5OGgxMy40MTVxNS4wMy4wMDEgOC41NDEtMS4wNDggMy41MS0xLjA0NyA1LjYwOC0yLjc3NyAyLjA5NS0xLjczIDMuMDM5LTQuMDg3Ljk0My0yLjM1OC45NDMtNS4wODMgMC0yLjYyLS45NDMtNC45NzgtLjk0NC0yLjM1OS0zLjA0LTQuMTR0LTUuNjA3LTIuNzc4cS0zLjUxMS0uOTk1LTguNTQtLjk5NUgxMDYuOHptNTUuMTI2LTMyLjgwM2gyMS41OXExMS4zMTcgMCAxNy44NjggNC45MjUgNi41NSA0LjkyOCA2LjU1IDE0Ljg4MyAwIDkuOTU3LTYuNTUgMTQuOTM0LTYuNTUgNC45NzktMTcuODY4IDQuOTc4aC0xNC4wNDR2MzQuNDhoLTcuNTQ2em03LjU0NiAzMi44MDNoMTIuMTU4cTUuMDI5LjAwMSA4LjU0LTEuMDQ4IDMuNTEtMS4wNDcgNS42MDgtMi43NzcgMi4wOTYtMS43MyAzLjAzOS00LjA4Ny45NDMtMi4zNTguOTQzLTUuMDgzIDAtMi42Mi0uOTQzLTQuOTc4LS45NDQtMi4zNTktMy4wMzktNC4xNC0yLjA5OC0xLjc4LTUuNjA3LTIuNzc4LTMuNTEzLS45OTUtOC41NDEtLjk5NWgtMTIuMTU4em0xMTQuMjM0IDI5LjY2cS0xLjg4NyAyLjgzLTQuNjYzIDUuMzQ1LTIuNzc5IDIuNTE2LTYuMzQxIDQuMzQ5LTMuNTY0IDEuODM0LTcuNzAzIDIuODgyLTQuMTQgMS4wNDctOC43NTIgMS4wNDgtOC4yOC0uMDAyLTE1LjM1My0yLjkzNHQtMTIuMjYyLTguMTIzcS01LjE4OC01LjE4Ny04LjEyMi0xMi4zMTQtMi45MzYtNy4xMjYtMi45MzUtMTUuNjE2Yy4wMDEtOC40OS45NzctMTAuODYzIDIuOTM1LTE1LjYxNXEyLjkzNC03LjEyNiA4LjEyMi0xMi4zMTVjNS4xODgtNS4xODkgNy41NDUtNi4xNjUgMTIuMjYyLTguMTIycTcuMDc0LTIuOTM0IDE1LjM1My0yLjkzNSA2LjkxOCAwIDEzLjgzNSAyLjcyNSA2LjkxNiAyLjcyNiAxMS44NDIgOS4wMTNsLTYuNjAyIDQuOTI2cS0xLjE1NS0xLjc4LTMuMTQ1LTMuNTYzLTEuOTkyLTEuNzgxLTQuNTU4LTMuMTQ0YTI4LjUgMjguNSAwIDAgMC01LjUwMi0yLjIwMSAyMS4zIDIxLjMgMCAwIDAtNS44Ny0uODM5cS03LjEyNy4wMDEtMTIuNzg1IDIuNjItNS42NiAyLjYyMi05LjU5IDcuMDIydC02LjAyNyAxMC4yMTlxLTIuMDk1IDUuODE2LTIuMDk1IDEyLjIxIDAgNi4zOTMgMi4wOTYgMTIuMjA4IDIuMDk1IDUuODE4IDYuMDI3IDEwLjIxOSAzLjkzIDQuNDAzIDkuNTg5IDcuMDIyIDUuNjU4IDIuNjIgMTIuNzg1IDIuNjIgMi45MzQgMCA1LjgxNy0uNTI0YTI0LjIgMjQuMiAwIDAgMCA1LjY2LTEuNzgxcTIuNzc1LTEuMjU4IDUuMjQtMy40MDcgMi40NjEtMi4xNDYgNC41NTgtNS4zOTd6IiBjbGFzcz0ic3QwIi8+PGRlZnM+PHBhdGggZD0iTTguNDYgOS43MDNoMjcuNTM1djI3LjUzNUg4LjQ2eiIgdHJhbnNmb3JtPSJyb3RhdGUoLTEzNS4yMTMgMjIuMjI3IDIzLjQ3KSIgaWQ9IlNWR0lEXzFfIi8+PC9kZWZzPjxjbGlwUGF0aCBpZD0iU1ZHSURfMl8iPjx1c2Ugb3ZlcmZsb3c9InZpc2libGUiIHhsaW5rOmhyZWY9IiNTVkdJRF8xXyIvPjwvY2xpcFBhdGg+PHBhdGggZD0ibTMuMTAyIDQtLjM0NSAzLjA1VjR6IiBmaWxsPSIjNzRjYmNiIiBjbGlwLXBhdGg9InVybCgjU1ZHSURfMl8pIi8+PHBhdGggc3R5bGU9ImNsaXAtcGF0aDp1cmwoI1NWR0lEXzJfKTtmaWxsOiM3M2NiY2IiIGQ9Im0zLjU1NyA0LS44IDcuMDc4VjcuMDQ5TDMuMTAyIDR6bS40NTUgMEwyLjc1NyAxNS4xMDd2LTQuMDI5TDMuNTU3IDR6Ii8+PHBhdGggc3R5bGU9ImNsaXAtcGF0aDp1cmwoI1NWR0lEXzJfKTtmaWxsOiM3MmNiY2EiIGQ9Im00LjQ2NyA0LTEuNzEgMTUuMTM1di00LjAyOEw0LjAxMiA0em0uNDU2IDBMMi43NTcgMjMuMTY0di00LjAyOUw0LjQ2NyA0eiIvPjxwYXRoIGQ9Im01LjM3OCA0LTIuNjIgMjMuMTkzdi00LjAyOUw0LjkyMiA0eiIgZmlsbD0iIzcxY2FjYSIgY2xpcC1wYXRoPSJ1cmwoI1NWR0lEXzJfKSIvPjxwYXRoIGQ9Ik01LjgzMyA0IDIuNzU3IDMxLjIyMnYtNC4wM0w1LjM3NyA0eiIgY2xhc3M9InN0NSIvPjxwYXRoIGQ9Im02LjI4OCA0LTMuNTMgMzEuMjV2LTQuMDI4TDUuODMyIDR6IiBjbGFzcz0ic3Q1Ii8+PHBhdGggZD0iTTYuNzQzIDQgMi43NTcgMzkuMjc5VjM1LjI1TDYuMjg4IDR6IiBmaWxsPSIjNmZjYWM5IiBjbGlwLXBhdGg9InVybCgjU1ZHSURfMl8pIi8+PHBhdGggZD0iTTcuMTk5IDQgMi44IDQyLjkxNmwtLjA0NC0uMDA1VjM5LjI4TDYuNzQzIDR6IiBmaWxsPSIjNmVjYWM5IiBjbGlwLXBhdGg9InVybCgjU1ZHSURfMl8pIi8+PHBhdGggZD0ibTcuNjU0IDQtNC40IDM4Ljk0aC0uMjQybC0uMjEtLjAyNEw3LjE5OSA0eiIgY2xhc3M9InN0OCIvPjxwYXRoIGQ9Im04LjEwOSA0LTQuNCAzOC45NGgtLjQ1NUw3LjY1NCA0eiIgY2xhc3M9InN0OCIvPjxwYXRoIGQ9Im04LjU2NCA0LTQuNCAzOC45NEgzLjcxTDguMTEgNHoiIGZpbGw9IiM2Y2M5YzgiIGNsaXAtcGF0aD0idXJsKCNTVkdJRF8yXykiLz48cGF0aCBkPSJtOS4wMiA0LTQuNCAzOC45NGgtLjQ1Nkw4LjU2NCA0eiIgZmlsbD0iIzZiYzljOCIgY2xpcC1wYXRoPSJ1cmwoI1NWR0lEXzJfKSIvPjxwYXRoIGQ9Im05LjQ3NSA0LTQuNCAzOC45NEg0LjYyTDkuMDIgNHoiIGZpbGw9IiM2YWM5YzgiIGNsaXAtcGF0aD0idXJsKCNTVkdJRF8yXykiLz48cGF0aCBkPSJtOS45MyA0LTQuNCAzOC45NGgtLjQ1NUw5LjQ3NSA0eiIgZmlsbD0iIzY5YzhjOCIgY2xpcC1wYXRoPSJ1cmwoI1NWR0lEXzJfKSIvPjxwYXRoIGQ9Im0xMC4zODUgNC00LjQgMzguOTRINS41M0w5LjkzIDR6IiBmaWxsPSIjNjhjOGM3IiBjbGlwLXBhdGg9InVybCgjU1ZHSURfMl8pIi8+PHBhdGggZD0ibTEwLjg0IDQtNC40IDM4Ljk0aC0uNDU1TDEwLjM4NSA0eiIgZmlsbD0iIzY3YzhjNyIgY2xpcC1wYXRoPSJ1cmwoI1NWR0lEXzJfKSIvPjxwYXRoIGQ9Im0xMS4yOTUgNC00LjQgMzguOTRINi40NEwxMC44NCA0eiIgZmlsbD0iIzY2YzdjNyIgY2xpcC1wYXRoPSJ1cmwoI1NWR0lEXzJfKSIvPjxwYXRoIGQ9Im0xMS43NSA0LTQuNCAzOC45NGgtLjQ1NEwxMS4yOTYgNHoiIGZpbGw9IiM2NWM3YzYiIGNsaXAtcGF0aD0idXJsKCNTVkdJRF8yXykiLz48cGF0aCBkPSJtMTIuMjA2IDQtNC40IDM4Ljk0aC0uNDU1TDExLjc1IDR6IiBmaWxsPSIjNjRjN2M2IiBjbGlwLXBhdGg9InVybCgjU1ZHSURfMl8pIi8+PHBhdGggZD0ibTEyLjY2MSA0LTQuNCAzOC45NGgtLjQ1NUwxMi4yMDYgNHoiIGZpbGw9IiM2MmM3YzYiIGNsaXAtcGF0aD0idXJsKCNTVkdJRF8yXykiLz48cGF0aCBkPSJtMTMuMTE2IDQtNC40IDM4Ljk0aC0uNDU1TDEyLjY2MSA0eiIgZmlsbD0iIzYxYzZjNiIgY2xpcC1wYXRoPSJ1cmwoI1NWR0lEXzJfKSIvPjxwYXRoIGQ9Im0xMy41NzIgNC00LjQgMzguOTRoLS40NTZMMTMuMTE2IDR6IiBmaWxsPSIjNjBjNmM1IiBjbGlwLXBhdGg9InVybCgjU1ZHSURfMl8pIi8+PHBhdGggZD0ibTE0LjAyNyA0LTQuNCAzOC45NGgtLjQ1NUwxMy41NzIgNHoiIGZpbGw9IiM1ZWM2YzUiIGNsaXAtcGF0aD0idXJsKCNTVkdJRF8yXykiLz48cGF0aCBkPSJtMTQuNDgyIDQtNC40IDM4Ljk0aC0uNDU1TDE0LjAyNyA0eiIgZmlsbD0iIzVkYzVjNSIgY2xpcC1wYXRoPSJ1cmwoI1NWR0lEXzJfKSIvPjxwYXRoIGQ9Im0xNC45MzcgNC00LjQgMzguOTRoLS40NTVMMTQuNDgyIDR6IiBmaWxsPSIjNWJjNWM0IiBjbGlwLXBhdGg9InVybCgjU1ZHSURfMl8pIi8+PHBhdGggZD0ibTE1LjM5MiA0LTQuNCAzOC45NGgtLjQ1NUwxNC45MzcgNHoiIGZpbGw9IiM1YWM1YzQiIGNsaXAtcGF0aD0idXJsKCNTVkdJRF8yXykiLz48cGF0aCBkPSJtMTUuODQ4IDQtNC40IDM4Ljk0aC0uNDU2TDE1LjM5MiA0eiIgZmlsbD0iIzU4YzRjMyIgY2xpcC1wYXRoPSJ1cmwoI1NWR0lEXzJfKSIvPjxwYXRoIGQ9Im0xNi4zMDMgNC00LjQgMzguOTRoLS40NTVMMTUuODQ4IDR6IiBmaWxsPSIjNTdjNGMzIiBjbGlwLXBhdGg9InVybCgjU1ZHSURfMl8pIi8+PHBhdGggZD0ibTE2Ljc1OCA0LTQuNCAzOC45NGgtLjQ1NUwxNi4zMDMgNHoiIGZpbGw9IiM1NWM0YzMiIGNsaXAtcGF0aD0idXJsKCNTVkdJRF8yXykiLz48cGF0aCBkPSJtMTcuMjEzIDQtNC40IDM4Ljk0aC0uNDU1TDE2Ljc1OCA0eiIgZmlsbD0iIzUzYzNjMiIgY2xpcC1wYXRoPSJ1cmwoI1NWR0lEXzJfKSIvPjxwYXRoIGQ9Im0xNy42NjggNC00LjQgMzguOTRoLS40NTVMMTcuMjEzIDR6IiBmaWxsPSIjNTFjM2MyIiBjbGlwLXBhdGg9InVybCgjU1ZHSURfMl8pIi8+PHBhdGggZD0ibTE4LjEyNCA0LTQuNCAzOC45NGgtLjQ1NUwxNy42NjkgNHoiIGZpbGw9IiM0ZmMzYzEiIGNsaXAtcGF0aD0idXJsKCNTVkdJRF8yXykiLz48cGF0aCBkPSJtMTguNTc5IDQtNC40IDM4Ljk0aC0uNDU1TDE4LjEyNCA0eiIgZmlsbD0iIzRkYzJjMSIgY2xpcC1wYXRoPSJ1cmwoI1NWR0lEXzJfKSIvPjxwYXRoIGQ9Im0xOS4wMzQgNC00LjQgMzguOTRoLS40NTVMMTguNTc5IDR6IiBmaWxsPSIjNGJjMmMwIiBjbGlwLXBhdGg9InVybCgjU1ZHSURfMl8pIi8+PHBhdGggZD0ibTE5LjQ5IDQtNC40IDM4Ljk0aC0uNDU2TDE5LjAzNCA0eiIgZmlsbD0iIzQ5YzFjMCIgY2xpcC1wYXRoPSJ1cmwoI1NWR0lEXzJfKSIvPjxwYXRoIGQ9Im0xOS45NDQgNC00LjQgMzguOTRoLS40NTVMMTkuNDkgNHoiIGZpbGw9IiM0NmMxYzAiIGNsaXAtcGF0aD0idXJsKCNTVkdJRF8yXykiLz48cGF0aCBkPSJNMjAuNCA0IDE2IDQyLjk0aC0uNDU1TDE5Ljk0NSA0eiIgZmlsbD0iIzQ0YzBiZiIgY2xpcC1wYXRoPSJ1cmwoI1NWR0lEXzJfKSIvPjxwYXRoIGQ9Im0yMC44NTUgNC00LjQgMzguOTRIMTZMMjAuNCA0eiIgZmlsbD0iIzQxYzBiZiIgY2xpcC1wYXRoPSJ1cmwoI1NWR0lEXzJfKSIvPjxwYXRoIGQ9Im0yMS4zMSA0LTQuNCAzOC45NGgtLjQ1NUwyMC44NTUgNHoiIGZpbGw9IiMzZWMwYmUiIGNsaXAtcGF0aD0idXJsKCNTVkdJRF8yXykiLz48cGF0aCBkPSJtMjEuNzY1IDQtNC40IDM4Ljk0aC0uNDU1TDIxLjMxIDR6IiBmaWxsPSIjM2JiZmJlIiBjbGlwLXBhdGg9InVybCgjU1ZHSURfMl8pIi8+PHBhdGggZD0ibTIyLjIyIDQtNC40IDM4Ljk0aC0uNDU1TDIxLjc2NSA0eiIgZmlsbD0iIzM4YmZiZCIgY2xpcC1wYXRoPSJ1cmwoI1NWR0lEXzJfKSIvPjxwYXRoIGQ9Im0yMi42NzYgNC00LjQgMzguOTRoLS40NTVMMjIuMjIgNHoiIGZpbGw9IiMzNGJlYmQiIGNsaXAtcGF0aD0idXJsKCNTVkdJRF8yXykiLz48cGF0aCBkPSJtMjMuMTMgNC00LjQgMzguOTRoLS40NTRMMjIuNjc2IDR6IiBmaWxsPSIjMzBiZWJjIiBjbGlwLXBhdGg9InVybCgjU1ZHSURfMl8pIi8+PHBhdGggZD0ibTIzLjU4NiA0LTQuNCAzOC45NGgtLjQ1NUwyMy4xMyA0eiIgZmlsbD0iIzJjYmRiYiIgY2xpcC1wYXRoPSJ1cmwoI1NWR0lEXzJfKSIvPjxwYXRoIGQ9Im0yNC4wNDEgNC00LjQgMzguOTRoLS40NTVMMjMuNTg2IDR6IiBmaWxsPSIjMjdiZGJiIiBjbGlwLXBhdGg9InVybCgjU1ZHSURfMl8pIi8+PHBhdGggZD0ibTI0LjQ5NiA0LTQuNCAzOC45NGgtLjQ1NUwyNC4wNDEgNHoiIGZpbGw9IiMyMWJjYmEiIGNsaXAtcGF0aD0idXJsKCNTVkdJRF8yXykiLz48cGF0aCBkPSJtMjQuOTUyIDQtNC40IDM4Ljk0aC0uNDU1TDI0LjQ5NiA0eiIgZmlsbD0iIzFhYmNiYSIgY2xpcC1wYXRoPSJ1cmwoI1NWR0lEXzJfKSIvPjxwYXRoIGQ9Im0yNS40MDcgNC00LjQgMzguOTRoLS40NTVMMjQuOTUyIDR6IiBmaWxsPSIjMTBiYmI5IiBjbGlwLXBhdGg9InVybCgjU1ZHSURfMl8pIi8+PHBhdGggZD0ibTI1Ljg2MiA0LTQuNCAzOC45NGgtLjQ1NUwyNS40MDcgNHoiIGZpbGw9IiMwMGJiYjkiIGNsaXAtcGF0aD0idXJsKCNTVkdJRF8yXykiLz48cGF0aCBkPSJtMjYuMzE3IDQtNC40IDM4Ljk0aC0uNDU1TDI1Ljg2MiA0eiIgZmlsbD0iIzAwYmFiOCIgY2xpcC1wYXRoPSJ1cmwoI1NWR0lEXzJfKSIvPjxwYXRoIGQ9Im0yNi43NzIgNC00LjQgMzguOTRoLS40NTVMMjYuMzE3IDR6IiBmaWxsPSIjMDBiYWI3IiBjbGlwLXBhdGg9InVybCgjU1ZHSURfMl8pIi8+PHBhdGggZD0ibTI3LjIyOCA0LTQuNCAzOC45NGgtLjQ1NUwyNi43NzMgNHoiIGZpbGw9IiMwMGI5YjciIGNsaXAtcGF0aD0idXJsKCNTVkdJRF8yXykiLz48cGF0aCBkPSJtMjcuNjgzIDQtNC40IDM4Ljk0aC0uNDU1TDI3LjIyOCA0eiIgZmlsbD0iIzAwYjliNiIgY2xpcC1wYXRoPSJ1cmwoI1NWR0lEXzJfKSIvPjxwYXRoIGQ9Im0yOC4xMzggNC00LjQgMzguOTRoLS40NTVMMjcuNjgzIDR6IiBmaWxsPSIjMDBiOGI2IiBjbGlwLXBhdGg9InVybCgjU1ZHSURfMl8pIi8+PHBhdGggZD0ibTI4LjU5MyA0LTQuNCAzOC45NGgtLjQ1NUwyOC4xMzggNHoiIGZpbGw9IiMwMGI3YjUiIGNsaXAtcGF0aD0idXJsKCNTVkdJRF8yXykiLz48cGF0aCBkPSJtMjkuMDQ5IDQtNC40IDM4Ljk0aC0uNDU2TDI4LjU5MyA0eiIgZmlsbD0iIzAwYjdiNCIgY2xpcC1wYXRoPSJ1cmwoI1NWR0lEXzJfKSIvPjxwYXRoIGQ9Im0yOS41MDQgNC00LjQgMzguOTRoLS40NTVMMjkuMDQ5IDR6IiBmaWxsPSIjMDBiNmI0IiBjbGlwLXBhdGg9InVybCgjU1ZHSURfMl8pIi8+PHBhdGggZD0ibTI5Ljk1OSA0LTQuNCAzOC45NGgtLjQ1NUwyOS41MDQgNHoiIGZpbGw9IiMwMGI2YjMiIGNsaXAtcGF0aD0idXJsKCNTVkdJRF8yXykiLz48cGF0aCBkPSJtMzAuNDE0IDQtNC40IDM4Ljk0aC0uNDU1TDI5Ljk1OSA0eiIgY2xhc3M9InN0NTciLz48cGF0aCBkPSJtMzAuODcgNC00LjQgMzguOTRoLS40NTZMMzAuNDE0IDR6IiBjbGFzcz0ic3Q1NyIvPjxwYXRoIGQ9Im0zMS4zMjUgNC00LjQgMzguOTRoLS40NTZMMzAuODcgNHoiIGZpbGw9IiMwMGI0YjEiIGNsaXAtcGF0aD0idXJsKCNTVkdJRF8yXykiLz48cGF0aCBkPSJtMzEuNzggNC00LjQgMzguOTRoLS40NTVMMzEuMzI1IDR6IiBjbGFzcz0ic3Q1OSIvPjxwYXRoIGQ9Im0zMi4yMzUgNC00LjQgMzguOTRoLS40NTVMMzEuNzggNHoiIGNsYXNzPSJzdDU5Ii8+PHBhdGggZD0ibTMyLjY5IDQtNC40IDM4Ljk0aC0uNDU1TDMyLjIzNSA0eiIgZmlsbD0iIzAwYjJhZiIgY2xpcC1wYXRoPSJ1cmwoI1NWR0lEXzJfKSIvPjxwYXRoIGQ9Im0zMy4xNDUgNC00LjQgMzguOTRoLS40NTVMMzIuNjkgNHoiIGZpbGw9IiMwMGIyYWUiIGNsaXAtcGF0aD0idXJsKCNTVkdJRF8yXykiLz48cGF0aCBkPSJtMzMuNiA0LTQuNCAzOC45NGgtLjQ1NUwzMy4xNDYgNHoiIGZpbGw9IiMwMGIxYWQiIGNsaXAtcGF0aD0idXJsKCNTVkdJRF8yXykiLz48cGF0aCBkPSJtMzQuMDU2IDQtNC40IDM4Ljk0aC0uNDU1TDMzLjYgNHoiIGNsYXNzPSJzdDYzIi8+PHBhdGggZD0ibTQxLjQ0MiA0IC4yNTUuMDI5VjQyLjk0SDI5LjY1NkwzNC4wNTYgNHoiIGNsYXNzPSJzdDYzIi8+PGRlZnM+PHBhdGggZD0iTTY3LjM1OCAxNS4xNjVoMTYuMTV2MTYuMTVoLTE2LjE1eiIgdHJhbnNmb3JtPSJyb3RhdGUoLTEzNS4yMTMgNzUuNDMzIDIzLjI0KSIgaWQ9IlNWR0lEXzNfIi8+PC9kZWZzPjxjbGlwUGF0aCBpZD0iU1ZHSURfNF8iPjx1c2Ugb3ZlcmZsb3c9InZpc2libGUiIHhsaW5rOmhyZWY9IiNTVkdJRF8zXyIvPjwvY2xpcFBhdGg+PHBhdGggZD0ibTg2Ljg1NCAxOC40OTEtLjMxMS02LjY3MWguMzF6IiBmaWxsPSIjNzRjYmNiIiBjbGlwLXBhdGg9InVybCgjU1ZHSURfNF8pIi8+PHBhdGggZD0ibTg2Ljg1NCAyNS41MDEtLjYzOC0xMy42ODFoLjMyN2wuMzEgNi42NzF6IiBmaWxsPSIjNzNjYmNiIiBjbGlwLXBhdGg9InVybCgjU1ZHSURfNF8pIi8+PHBhdGggZD0iTTg2Ljg1NCAzMi41MTEgODUuODkgMTEuODJoLjMyNmwuNjM3IDEzLjY4MXoiIGZpbGw9IiM3M2NiY2EiIGNsaXAtcGF0aD0idXJsKCNTVkdJRF80XykiLz48cGF0aCBkPSJtODYuNjI3IDM0LjY2LTEuMDY0LTIyLjg0aC4zMjdsLjk2MyAyMC42OTF2Mi4xNXoiIGZpbGw9IiM3MmNiY2EiIGNsaXAtcGF0aD0idXJsKCNTVkdJRF80XykiLz48cGF0aCBkPSJtODYuMyAzNC42Ni0xLjA2My0yMi44NGguMzI2bDEuMDY0IDIyLjg0eiIgZmlsbD0iIzcxY2FjYSIgY2xpcC1wYXRoPSJ1cmwoI1NWR0lEXzRfKSIvPjxwYXRoIGQ9Ik04NS45NzQgMzQuNjYgODQuOTEgMTEuODJoLjMyN0w4Ni4zIDM0LjY2eiIgZmlsbD0iIzcwY2FjYSIgY2xpcC1wYXRoPSJ1cmwoI1NWR0lEXzRfKSIvPjxwYXRoIGQ9Im04NS42NDggMzQuNjYtMS4wNjQtMjIuODRoLjMyNmwxLjA2NCAyMi44NHoiIGNsYXNzPSJzdDcwIi8+PHBhdGggZD0ibTg1LjMyMSAzNC42Ni0xLjA2NC0yMi44NGguMzI3bDEuMDY0IDIyLjg0eiIgY2xhc3M9InN0NzAiLz48cGF0aCBkPSJNODQuOTk1IDM0LjY2IDgzLjkzIDExLjgyaC4zMjZsMS4wNjQgMjIuODR6IiBmaWxsPSIjNmVjOWM5IiBjbGlwLXBhdGg9InVybCgjU1ZHSURfNF8pIi8+PHBhdGggZD0ibTg0LjY2OCAzNC42Ni0xLjA2NC0yMi44NGguMzI3bDEuMDY0IDIyLjg0eiIgZmlsbD0iIzZkYzljOSIgY2xpcC1wYXRoPSJ1cmwoI1NWR0lEXzRfKSIvPjxwYXRoIGQ9Im04NC4zNDIgMzQuNjYtMS4wNjQtMjIuODRoLjMyNmwxLjA2NCAyMi44NHoiIGZpbGw9IiM2Y2M5YzgiIGNsaXAtcGF0aD0idXJsKCNTVkdJRF80XykiLz48cGF0aCBkPSJtODQuMDE1IDM0LjY2LTEuMDY0LTIyLjg0aC4zMjdsMS4wNjQgMjIuODR6IiBmaWxsPSIjNmJjOWM4IiBjbGlwLXBhdGg9InVybCgjU1ZHSURfNF8pIi8+PHBhdGggZD0ibTgzLjY4OSAzNC42Ni0xLjA2NC0yMi44NGguMzI2bDEuMDY0IDIyLjg0eiIgZmlsbD0iIzZhYzhjOCIgY2xpcC1wYXRoPSJ1cmwoI1NWR0lEXzRfKSIvPjxwYXRoIGQ9Im04My4zNjIgMzQuNjYtMS4wNjQtMjIuODRoLjMyN2wxLjA2NCAyMi44NHoiIGZpbGw9IiM2OWM4YzgiIGNsaXAtcGF0aD0idXJsKCNTVkdJRF80XykiLz48cGF0aCBkPSJtODMuMDM2IDM0LjY2LTEuMDY0LTIyLjg0aC4zMjZsMS4wNjQgMjIuODR6IiBmaWxsPSIjNjhjOGM3IiBjbGlwLXBhdGg9InVybCgjU1ZHSURfNF8pIi8+PHBhdGggZD0ibTgyLjcwOSAzNC42Ni0xLjA2NC0yMi44NGguMzI3bDEuMDY0IDIyLjg0eiIgZmlsbD0iIzY3YzhjNyIgY2xpcC1wYXRoPSJ1cmwoI1NWR0lEXzRfKSIvPjxwYXRoIGQ9Im04Mi4zODMgMzQuNjYtMS4wNjQtMjIuODRoLjMyNmwxLjA2NCAyMi44NHoiIGZpbGw9IiM2NmM3YzciIGNsaXAtcGF0aD0idXJsKCNTVkdJRF80XykiLz48cGF0aCBkPSJtODIuMDU2IDM0LjY2LTEuMDY0LTIyLjg0aC4zMjdsMS4wNjQgMjIuODR6IiBmaWxsPSIjNjVjN2M2IiBjbGlwLXBhdGg9InVybCgjU1ZHSURfNF8pIi8+PHBhdGggZD0ibTgxLjczIDM0LjY2LTEuMDY0LTIyLjg0aC4zMjZsMS4wNjQgMjIuODR6IiBmaWxsPSIjNjNjN2M2IiBjbGlwLXBhdGg9InVybCgjU1ZHSURfNF8pIi8+PHBhdGggZD0ibTgxLjQwMyAzNC42Ni0xLjA2NC0yMi44NGguMzI3bDEuMDY0IDIyLjg0eiIgZmlsbD0iIzYyYzdjNiIgY2xpcC1wYXRoPSJ1cmwoI1NWR0lEXzRfKSIvPjxwYXRoIGQ9Im04MS4wNzcgMzQuNjYtMS4wNjQtMjIuODRoLjMyNmwxLjA2NCAyMi44NHoiIGZpbGw9IiM2MWM2YzYiIGNsaXAtcGF0aD0idXJsKCNTVkdJRF80XykiLz48cGF0aCBkPSJtODAuNzUgMzQuNjYtMS4wNjQtMjIuODRoLjMyN2wxLjA2NCAyMi44NHoiIGZpbGw9IiM2MGM2YzUiIGNsaXAtcGF0aD0idXJsKCNTVkdJRF80XykiLz48cGF0aCBkPSJNODAuNDI0IDM0LjY2IDc5LjM2IDExLjgyaC4zMjZsMS4wNjQgMjIuODR6IiBmaWxsPSIjNWZjNmM1IiBjbGlwLXBhdGg9InVybCgjU1ZHSURfNF8pIi8+PHBhdGggZD0ibTgwLjA5NyAzNC42Ni0xLjA2NC0yMi44NGguMzI3bDEuMDY0IDIyLjg0eiIgZmlsbD0iIzVkYzVjNSIgY2xpcC1wYXRoPSJ1cmwoI1NWR0lEXzRfKSIvPjxwYXRoIGQ9Im03OS43NyAzNC42Ni0xLjA2My0yMi44NGguMzI2bDEuMDY0IDIyLjg0eiIgZmlsbD0iIzVjYzVjNCIgY2xpcC1wYXRoPSJ1cmwoI1NWR0lEXzRfKSIvPjxwYXRoIGQ9Ik03OS40NDQgMzQuNjYgNzguMzggMTEuODJoLjMyN2wxLjA2NCAyMi44NHoiIGZpbGw9IiM1YmM1YzQiIGNsaXAtcGF0aD0idXJsKCNTVkdJRF80XykiLz48cGF0aCBkPSJtNzkuMTE4IDM0LjY2LTEuMDY0LTIyLjg0aC4zMjZsMS4wNjQgMjIuODR6IiBmaWxsPSIjNTljNWM0IiBjbGlwLXBhdGg9InVybCgjU1ZHSURfNF8pIi8+PHBhdGggZD0ibTc4Ljc5MSAzNC42Ni0xLjA2NC0yMi44NGguMzI3bDEuMDY0IDIyLjg0eiIgZmlsbD0iIzU4YzRjMyIgY2xpcC1wYXRoPSJ1cmwoI1NWR0lEXzRfKSIvPjxwYXRoIGQ9Ik03OC40NjUgMzQuNjYgNzcuNCAxMS44MmguMzI2bDEuMDY0IDIyLjg0eiIgZmlsbD0iIzU3YzRjMyIgY2xpcC1wYXRoPSJ1cmwoI1NWR0lEXzRfKSIvPjxwYXRoIGQ9Im03OC4xMzggMzQuNjYtMS4wNjQtMjIuODRoLjMyN2wxLjA2NCAyMi44NHoiIGZpbGw9IiM1NWM0YzMiIGNsaXAtcGF0aD0idXJsKCNTVkdJRF80XykiLz48cGF0aCBkPSJtNzcuODEyIDM0LjY2LTEuMDY0LTIyLjg0aC4zMjZsMS4wNjQgMjIuODR6IiBmaWxsPSIjNTRjM2MyIiBjbGlwLXBhdGg9InVybCgjU1ZHSURfNF8pIi8+PHBhdGggZD0ibTc3LjQ4NSAzNC42Ni0xLjA2NC0yMi44NGguMzI3bDEuMDY0IDIyLjg0eiIgZmlsbD0iIzUyYzNjMiIgY2xpcC1wYXRoPSJ1cmwoI1NWR0lEXzRfKSIvPjxwYXRoIGQ9Im03Ny4xNTkgMzQuNjYtMS4wNjQtMjIuODRoLjMyNmwxLjA2NCAyMi44NHoiIGZpbGw9IiM1MGMzYzIiIGNsaXAtcGF0aD0idXJsKCNTVkdJRF80XykiLz48cGF0aCBkPSJtNzYuODMyIDM0LjY2LTEuMDY0LTIyLjg0aC4zMjdsMS4wNjQgMjIuODR6IiBmaWxsPSIjNGZjMmMxIiBjbGlwLXBhdGg9InVybCgjU1ZHSURfNF8pIi8+PHBhdGggZD0ibTc2LjUwNiAzNC42Ni0xLjA2NC0yMi44NGguMzI2bDEuMDY0IDIyLjg0eiIgZmlsbD0iIzRkYzJjMSIgY2xpcC1wYXRoPSJ1cmwoI1NWR0lEXzRfKSIvPjxwYXRoIGQ9Im03Ni4xNzkgMzQuNjYtMS4wNjQtMjIuODRoLjMyN2wxLjA2NCAyMi44NHoiIGZpbGw9IiM0YmMyYzEiIGNsaXAtcGF0aD0idXJsKCNTVkdJRF80XykiLz48cGF0aCBkPSJtNzUuODUzIDM0LjY2LTEuMDY0LTIyLjg0aC4zMjZsMS4wNjQgMjIuODR6IiBmaWxsPSIjNGFjMWMwIiBjbGlwLXBhdGg9InVybCgjU1ZHSURfNF8pIi8+PHBhdGggZD0ibTc1LjUyNiAzNC42Ni0xLjA2NC0yMi44NGguMzI3bDEuMDY0IDIyLjg0eiIgZmlsbD0iIzQ4YzFjMCIgY2xpcC1wYXRoPSJ1cmwoI1NWR0lEXzRfKSIvPjxwYXRoIGQ9Im03NS4yIDM0LjY2LTEuMDY0LTIyLjg0aC4zMjZsMS4wNjQgMjIuODR6IiBmaWxsPSIjNDZjMWMwIiBjbGlwLXBhdGg9InVybCgjU1ZHSURfNF8pIi8+PHBhdGggZD0ibTc0Ljg3MyAzNC42Ni0xLjA2NC0yMi44NGguMzI3TDc1LjIgMzQuNjZ6IiBmaWxsPSIjNDRjMWJmIiBjbGlwLXBhdGg9InVybCgjU1ZHSURfNF8pIi8+PHBhdGggZD0ibTc0LjU0NyAzNC42Ni0xLjA2NC0yMi44NGguMzI2bDEuMDY0IDIyLjg0eiIgZmlsbD0iIzQyYzBiZiIgY2xpcC1wYXRoPSJ1cmwoI1NWR0lEXzRfKSIvPjxwYXRoIGQ9Im03NC4yMiAzNC42Ni0xLjA2NC0yMi44NGguMzI3bDEuMDY0IDIyLjg0eiIgZmlsbD0iIzQwYzBiZSIgY2xpcC1wYXRoPSJ1cmwoI1NWR0lEXzRfKSIvPjxwYXRoIGQ9Ik03My44OTQgMzQuNjYgNzIuODMgMTEuODJoLjMyNmwxLjA2NCAyMi44NHoiIGZpbGw9IiMzZWMwYmUiIGNsaXAtcGF0aD0idXJsKCNTVkdJRF80XykiLz48cGF0aCBkPSJtNzMuNTY3IDM0LjY2LTEuMDY0LTIyLjg0aC4zMjdsMS4wNjQgMjIuODR6IiBmaWxsPSIjM2NiZmJlIiBjbGlwLXBhdGg9InVybCgjU1ZHSURfNF8pIi8+PHBhdGggZD0ibTczLjI0IDM0LjY2LTEuMDYzLTIyLjg0aC4zMjZsMS4wNjQgMjIuODR6IiBmaWxsPSIjMzliZmJkIiBjbGlwLXBhdGg9InVybCgjU1ZHSURfNF8pIi8+PHBhdGggZD0iTTcyLjkxNCAzNC42NiA3MS44NSAxMS44MmguMzI3bDEuMDY0IDIyLjg0eiIgZmlsbD0iIzM3YmZiZCIgY2xpcC1wYXRoPSJ1cmwoI1NWR0lEXzRfKSIvPjxwYXRoIGQ9Im03Mi41ODggMzQuNjYtMS4wNjQtMjIuODRoLjMyNmwxLjA2NCAyMi44NHoiIGZpbGw9IiMzNGJlYmQiIGNsaXAtcGF0aD0idXJsKCNTVkdJRF80XykiLz48cGF0aCBkPSJtNzIuMjYxIDM0LjY2LTEuMDY0LTIyLjg0aC4zMjdsMS4wNjMgMjIuODR6IiBmaWxsPSIjMzJiZWJjIiBjbGlwLXBhdGg9InVybCgjU1ZHSURfNF8pIi8+PHBhdGggZD0iTTcxLjkzNSAzNC42NiA3MC44NyAxMS44MmguMzI2bDEuMDY0IDIyLjg0eiIgZmlsbD0iIzJmYmRiYyIgY2xpcC1wYXRoPSJ1cmwoI1NWR0lEXzRfKSIvPjxwYXRoIGQ9Im03MS42MDggMzQuNjYtMS4wNjQtMjIuODRoLjMyN2wxLjA2NCAyMi44NHoiIGZpbGw9IiMyY2JkYmIiIGNsaXAtcGF0aD0idXJsKCNTVkdJRF80XykiLz48cGF0aCBkPSJtNzEuMjgyIDM0LjY2LTEuMDY0LTIyLjg0aC4zMjZsMS4wNjQgMjIuODR6IiBmaWxsPSIjMjhiZGJiIiBjbGlwLXBhdGg9InVybCgjU1ZHSURfNF8pIi8+PHBhdGggZD0ibTcwLjk1NSAzNC42Ni0xLjA2NC0yMi44NGguMzI3bDEuMDYzIDIyLjg0eiIgZmlsbD0iIzI1YmNiYiIgY2xpcC1wYXRoPSJ1cmwoI1NWR0lEXzRfKSIvPjxwYXRoIGQ9Im03MC42MjkgMzQuNjYtMS4wNjQtMjIuODRoLjMyNmwxLjA2NCAyMi44NHoiIGZpbGw9IiMyMWJjYmEiIGNsaXAtcGF0aD0idXJsKCNTVkdJRF80XykiLz48cGF0aCBkPSJtNzAuMzAyIDM0LjY2LTEuMDY0LTIyLjg0aC4zMjdsMS4wNjQgMjIuODR6IiBmaWxsPSIjMWNiY2JhIiBjbGlwLXBhdGg9InVybCgjU1ZHSURfNF8pIi8+PHBhdGggZD0ibTY5Ljk3NiAzNC42Ni0xLjA2NC0yMi44NGguMzI2bDEuMDY0IDIyLjg0eiIgZmlsbD0iIzE2YmJiYSIgY2xpcC1wYXRoPSJ1cmwoI1NWR0lEXzRfKSIvPjxwYXRoIGQ9Im02OS42NDkgMzQuNjYtMS4wNjQtMjIuODRoLjMyN2wxLjA2MyAyMi44NHoiIGZpbGw9IiMwZmJiYjkiIGNsaXAtcGF0aD0idXJsKCNTVkdJRF80XykiLz48cGF0aCBkPSJtNjkuMzIzIDM0LjY2LTEuMDY0LTIyLjg0aC4zMjZsMS4wNjQgMjIuODR6IiBmaWxsPSIjMDRiYmI5IiBjbGlwLXBhdGg9InVybCgjU1ZHSURfNF8pIi8+PHBhdGggc3R5bGU9ImNsaXAtcGF0aDp1cmwoI1NWR0lEXzRfKTtmaWxsOiMwMGJhYjgiIGQ9Im02OC45OTYgMzQuNjYtMS4wNjQtMjIuODRoLjMyN2wxLjA2MyAyMi44NHptLS4zMjYgMC0xLjA2NC0yMi44NGguMzI2bDEuMDY0IDIyLjg0em0tLjMyNyAwLTEuMDY0LTIyLjg0aC4zMjdsMS4wNjQgMjIuODR6Ii8+PHBhdGggc3R5bGU9ImNsaXAtcGF0aDp1cmwoI1NWR0lEXzRfKTtmaWxsOiMwMGI5YjciIGQ9Im02OC4wMTcgMzQuNjYtMS4wNjQtMjIuODRoLjMyNmwxLjA2NCAyMi44NHptLS4zMjcgMC0xLjA2NC0yMi44NGguMzI3bDEuMDYzIDIyLjg0eiIvPjxwYXRoIGQ9Ik02Ny4zNjQgMzQuNjYgNjYuMyAxMS44MmguMzI2bDEuMDY0IDIyLjg0eiIgZmlsbD0iIzAwYjliNiIgY2xpcC1wYXRoPSJ1cmwoI1NWR0lEXzRfKSIvPjxwYXRoIHN0eWxlPSJjbGlwLXBhdGg6dXJsKCNTVkdJRF80Xyk7ZmlsbDojMDBiOGI2IiBkPSJtNjcuMDM3IDM0LjY2LTEuMDY0LTIyLjg0aC4zMjdsMS4wNjQgMjIuODR6bS0uMzI3IDAtMS4wNjMtMjIuODRoLjMyNmwxLjA2NCAyMi44NHoiLz48cGF0aCBkPSJNNjYuMzg0IDM0LjY2IDY1LjMyIDExLjgyaC4zMjdsMS4wNjMgMjIuODR6IiBmaWxsPSIjMDBiOGI1IiBjbGlwLXBhdGg9InVybCgjU1ZHSURfNF8pIi8+PHBhdGggZD0ibTY2LjA1OCAzNC42Ni0xLjA2NC0yMi44NGguMzI2bDEuMDY0IDIyLjg0eiIgZmlsbD0iIzAwYjdiNSIgY2xpcC1wYXRoPSJ1cmwoI1NWR0lEXzRfKSIvPjxwYXRoIHN0eWxlPSJmaWxsOiMwMGI3YjQ7Y2xpcC1wYXRoOnVybCgjU1ZHSURfNF8pIiBkPSJtNjUuNzMxIDM0LjY2LTEuMDY0LTIyLjg0aC4zMjdsMS4wNjMgMjIuODR6bS0uMzI2IDBMNjQuMzQgMTEuODJoLjMyNmwxLjA2NCAyMi44NHoiLz48cGF0aCBkPSJtNjUuMDc4IDM0LjY2LTEuMDY0LTIyLjg0aC4zMjdsMS4wNjQgMjIuODR6IiBmaWxsPSIjMDBiNmI0IiBjbGlwLXBhdGg9InVybCgjU1ZHSURfNF8pIi8+PHBhdGggc3R5bGU9ImNsaXAtcGF0aDp1cmwoI1NWR0lEXzRfKTtmaWxsOiMwMGI2YjMiIGQ9Im02NC43NTEgMzQuNjYtLjczOC0xNS44NThWMTEuODJoLjAwMWwxLjA2NCAyMi44NHptLS4zMjYgMC0uNDEyLTguODQ4di03LjAxbC43MzggMTUuODU4eiIvPjxwYXRoIHN0eWxlPSJjbGlwLXBhdGg6dXJsKCNTVkdJRF80Xyk7ZmlsbDojMDBiNWIyIiBkPSJtNjQuMDk5IDM0LjY2LS4wODYtMS44Mzh2LTcuMDFsLjQxMiA4Ljg0OHptLS4wODYtMS44MzguMDg1IDEuODM4aC0uMDg1eiIvPjxwYXRoIGQ9Ik0yMy4wMSAxMS42OTggMTEuMjY1IDIzLjUzMiAyMy4wOTggMzUuMjhsMTAuMDEyLS4wMzctMTAuNS0xMC40MTUgNTEuODQyLS4xOTMtNC41NDMgNC41NzUgNS4wMDUtLjAxOSA1Ljg3NC01LjkxNy01LjkxNy01Ljg3My01LjAwNi4wMTkgNC41NzggNC41NC01MS44NDIuMTkzIDEwLjQyLTEwLjQ5MnoiIGNsYXNzPSJzdDAiLz48L3N2Zz4=;" parent="pVB1kBmUra2NY2BU2NWc-21" vertex="1">
          <mxGeometry x="2.92" y="3.72" width="62.04" height="26.28" as="geometry" />
        </mxCell>
        <mxCell id="pVB1kBmUra2NY2BU2NWc-23" value="" style="rounded=1;whiteSpace=wrap;html=1;fillColor=none;strokeColor=#67AB9F;strokeWidth=2;arcSize=9;" parent="1" vertex="1">
          <mxGeometry x="560" y="220" width="140" height="120" as="geometry" />
        </mxCell>
        <mxCell id="pVB1kBmUra2NY2BU2NWc-24" value="Frontend" style="rounded=1;whiteSpace=wrap;html=1;fillColor=#D5E8D4;strokeColor=#67AB9F;strokeWidth=2;fontFamily=Times New Roman;fontStyle=0;gradientColor=none;glass=0;" parent="1" vertex="1">
          <mxGeometry x="570" y="340" width="120" height="20" as="geometry" />
        </mxCell>
        <mxCell id="pVB1kBmUra2NY2BU2NWc-26" value="" style="group" parent="1" vertex="1" connectable="0">
          <mxGeometry x="478.94" y="286.7" width="70" height="33.3" as="geometry" />
        </mxCell>
        <mxCell id="pVB1kBmUra2NY2BU2NWc-27" value="" style="rounded=0;whiteSpace=wrap;html=1;fillColor=#4D4D4D;strokeColor=none;" parent="pVB1kBmUra2NY2BU2NWc-26" vertex="1">
          <mxGeometry width="70" height="33.3" as="geometry" />
        </mxCell>
        <mxCell id="pVB1kBmUra2NY2BU2NWc-28" value="" style="shape=image;verticalLabelPosition=bottom;labelBackgroundColor=default;verticalAlign=top;aspect=fixed;imageAspect=0;image=data:image/svg+xml,PHN2ZyB4bWxuczp4bGluaz0iaHR0cDovL3d3dy53My5vcmcvMTk5OS94bGluayIgeG1sbnM9Imh0dHA6Ly93d3cudzMub3JnLzIwMDAvc3ZnIiB2aWV3Qm94PSIwIDAgMjg4IDEyMi4zMzMiIGlkPSJMYXllcl8xIj48c3R5bGU+LnN0MHtmaWxsOiNmZmZ9LnN0NXtmaWxsOiM3MGNhY2F9LnN0NSwuc3Q1Nywuc3Q1OSwuc3Q2Mywuc3Q4e2NsaXAtcGF0aDp1cmwoI1NWR0lEXzJfKX0uc3Q4e2ZpbGw6IzZkYzljOX0uc3Q1N3tmaWxsOiMwMGI1YjJ9LnN0NTl7ZmlsbDojMDBiM2IwfS5zdDYze2ZpbGw6IzAwYjBhZH0uc3Q3MHtjbGlwLXBhdGg6dXJsKCNTVkdJRF80Xyk7ZmlsbDojNmZjYWM5fTwvc3R5bGU+PHBhdGggZD0iTTMzLjg1OCAxMDIuNjk5cTMuMDQgNC4wODcgNy45MTIgNi41NSA0Ljg3NCAyLjQ2MiAxMC44NDggMi40NjMgNS4yNC0uMDAxIDguOTA4LTEuNTJ0NS45MjEtNC4xNHEyLjI1Mi0yLjYyIDMuMjUtNi4xMy45OTQtMy41MTMuOTk1LTcuNDkzdi04LjgwNGgtLjIxcS0zLjM1NSA1LjAzLTguMTc0IDcuMTI3LTQuODIyIDIuMDk2LTEwLjE2NiAyLjA5Ni01LjM0NiAwLTEwLjAwOS0xLjg4Ny00LjY2NS0xLjg4Ny04LjEyMi01LjE4Ny0zLjQ2LTMuMzAyLTUuNDUtNy45MTN0LTEuOTkxLTkuOTU2YzAtNS4zNDUuNjI5LTYuODgyIDEuODg2LTkuOTU3cTEuODg3LTQuNjExIDUuMTg4LTguMDcgMy4zLTMuNDU3IDcuODYtNS4zOTcgNC41Ni0xLjkzOSAxMC4wMS0xLjk0IDIuMTk5LjAwMiA0LjY2My40MiAyLjQ2MS40MiA0LjkyNSAxLjQ2OCAyLjQ2MiAxLjA0OCA0Ljg3NCAyLjg4MSAyLjQwOSAxLjgzNSA0LjUwNyA0LjY2NGguMjA5VjQzLjhoNi45MTd2NDguNjNxMCAzLjk4LS45OTYgOC40ODgtLjk5NiA0LjUwNi0zLjg3NyA4LjI4LTIuODg0IDMuNzczLTguMDE4IDYuMjg5UTYwLjU4MiAxMTggNTIuMzAzIDExOHEtNy4zMzcgMC0xMy4xLTIuNDEtNS43NjQtMi40MTItMTAuNDgtNy40NDF6bTEuMjU3LTM1LjAwNHEwIDMuODc4IDEuNDE2IDcuMjgzIDEuNDE0IDMuNDA4IDMuODc3IDUuOTc0YTE4LjggMTguOCAwIDAgMCA1Ljc2NCA0LjA4OHEzLjMwMSAxLjUyIDcuMTggMS41MiAzLjc3MiAwIDcuMTc5LTEuMzYzYTE5IDE5IDAgMCAwIDYuMDI1LTMuODI1cTIuNjItMi40NjIgNC4wMzYtNS45MjIgMS40MTMtMy40NTggMS4zMS03Ljc1NSAwLTMuODc3LTEuMjU4LTcuMjg0LTEuMjU4LTMuNDA1LTMuNjY4LTUuOTc0LTIuNDEyLTIuNTY3LTUuODctNC4wODd0LTcuNzU0LTEuNTJxLTMuODc5LjAwMS03LjE4IDEuNTJhMTguOCAxOC44IDAgMCAwLTUuNzY0IDQuMDg3cS0yLjQ2MyAyLjU3LTMuODc3IDUuOTc0LTEuNDE2IDMuNDA3LTEuNDE2IDcuMjg0TTEwNi44IDkyLjg0OGgtNy41NDVWMTguNjQ3SDEyMi4xcTExLjMxOCAwIDE3Ljg3IDQuOTI1IDYuNTUgNC45MjcgNi41NSAxNC44ODMgMCA3Ljc1Ni00Ljg3MyAxMy4wNDgtNC44NzUgNS4yOTMtMTQuMDk2IDYuMTNsMjEuMzggMzUuMjE1aC05LjIyNGwtMjAuMzMxLTM0LjQ4SDEwNi44em0wLTQxLjM5OGgxMy40MTVxNS4wMy4wMDEgOC41NDEtMS4wNDggMy41MS0xLjA0NyA1LjYwOC0yLjc3NyAyLjA5NS0xLjczIDMuMDM5LTQuMDg3Ljk0My0yLjM1OC45NDMtNS4wODMgMC0yLjYyLS45NDMtNC45NzgtLjk0NC0yLjM1OS0zLjA0LTQuMTR0LTUuNjA3LTIuNzc4cS0zLjUxMS0uOTk1LTguNTQtLjk5NUgxMDYuOHptNTUuMTI2LTMyLjgwM2gyMS41OXExMS4zMTcgMCAxNy44NjggNC45MjUgNi41NSA0LjkyOCA2LjU1IDE0Ljg4MyAwIDkuOTU3LTYuNTUgMTQuOTM0LTYuNTUgNC45NzktMTcuODY4IDQuOTc4aC0xNC4wNDR2MzQuNDhoLTcuNTQ2em03LjU0NiAzMi44MDNoMTIuMTU4cTUuMDI5LjAwMSA4LjU0LTEuMDQ4IDMuNTEtMS4wNDcgNS42MDgtMi43NzcgMi4wOTYtMS43MyAzLjAzOS00LjA4Ny45NDMtMi4zNTguOTQzLTUuMDgzIDAtMi42Mi0uOTQzLTQuOTc4LS45NDQtMi4zNTktMy4wMzktNC4xNC0yLjA5OC0xLjc4LTUuNjA3LTIuNzc4LTMuNTEzLS45OTUtOC41NDEtLjk5NWgtMTIuMTU4em0xMTQuMjM0IDI5LjY2cS0xLjg4NyAyLjgzLTQuNjYzIDUuMzQ1LTIuNzc5IDIuNTE2LTYuMzQxIDQuMzQ5LTMuNTY0IDEuODM0LTcuNzAzIDIuODgyLTQuMTQgMS4wNDctOC43NTIgMS4wNDgtOC4yOC0uMDAyLTE1LjM1My0yLjkzNHQtMTIuMjYyLTguMTIzcS01LjE4OC01LjE4Ny04LjEyMi0xMi4zMTQtMi45MzYtNy4xMjYtMi45MzUtMTUuNjE2Yy4wMDEtOC40OS45NzctMTAuODYzIDIuOTM1LTE1LjYxNXEyLjkzNC03LjEyNiA4LjEyMi0xMi4zMTVjNS4xODgtNS4xODkgNy41NDUtNi4xNjUgMTIuMjYyLTguMTIycTcuMDc0LTIuOTM0IDE1LjM1My0yLjkzNSA2LjkxOCAwIDEzLjgzNSAyLjcyNSA2LjkxNiAyLjcyNiAxMS44NDIgOS4wMTNsLTYuNjAyIDQuOTI2cS0xLjE1NS0xLjc4LTMuMTQ1LTMuNTYzLTEuOTkyLTEuNzgxLTQuNTU4LTMuMTQ0YTI4LjUgMjguNSAwIDAgMC01LjUwMi0yLjIwMSAyMS4zIDIxLjMgMCAwIDAtNS44Ny0uODM5cS03LjEyNy4wMDEtMTIuNzg1IDIuNjItNS42NiAyLjYyMi05LjU5IDcuMDIydC02LjAyNyAxMC4yMTlxLTIuMDk1IDUuODE2LTIuMDk1IDEyLjIxIDAgNi4zOTMgMi4wOTYgMTIuMjA4IDIuMDk1IDUuODE4IDYuMDI3IDEwLjIxOSAzLjkzIDQuNDAzIDkuNTg5IDcuMDIyIDUuNjU4IDIuNjIgMTIuNzg1IDIuNjIgMi45MzQgMCA1LjgxNy0uNTI0YTI0LjIgMjQuMiAwIDAgMCA1LjY2LTEuNzgxcTIuNzc1LTEuMjU4IDUuMjQtMy40MDcgMi40NjEtMi4xNDYgNC41NTgtNS4zOTd6IiBjbGFzcz0ic3QwIi8+PGRlZnM+PHBhdGggZD0iTTguNDYgOS43MDNoMjcuNTM1djI3LjUzNUg4LjQ2eiIgdHJhbnNmb3JtPSJyb3RhdGUoLTEzNS4yMTMgMjIuMjI3IDIzLjQ3KSIgaWQ9IlNWR0lEXzFfIi8+PC9kZWZzPjxjbGlwUGF0aCBpZD0iU1ZHSURfMl8iPjx1c2Ugb3ZlcmZsb3c9InZpc2libGUiIHhsaW5rOmhyZWY9IiNTVkdJRF8xXyIvPjwvY2xpcFBhdGg+PHBhdGggZD0ibTMuMTAyIDQtLjM0NSAzLjA1VjR6IiBmaWxsPSIjNzRjYmNiIiBjbGlwLXBhdGg9InVybCgjU1ZHSURfMl8pIi8+PHBhdGggc3R5bGU9ImNsaXAtcGF0aDp1cmwoI1NWR0lEXzJfKTtmaWxsOiM3M2NiY2IiIGQ9Im0zLjU1NyA0LS44IDcuMDc4VjcuMDQ5TDMuMTAyIDR6bS40NTUgMEwyLjc1NyAxNS4xMDd2LTQuMDI5TDMuNTU3IDR6Ii8+PHBhdGggc3R5bGU9ImNsaXAtcGF0aDp1cmwoI1NWR0lEXzJfKTtmaWxsOiM3MmNiY2EiIGQ9Im00LjQ2NyA0LTEuNzEgMTUuMTM1di00LjAyOEw0LjAxMiA0em0uNDU2IDBMMi43NTcgMjMuMTY0di00LjAyOUw0LjQ2NyA0eiIvPjxwYXRoIGQ9Im01LjM3OCA0LTIuNjIgMjMuMTkzdi00LjAyOUw0LjkyMiA0eiIgZmlsbD0iIzcxY2FjYSIgY2xpcC1wYXRoPSJ1cmwoI1NWR0lEXzJfKSIvPjxwYXRoIGQ9Ik01LjgzMyA0IDIuNzU3IDMxLjIyMnYtNC4wM0w1LjM3NyA0eiIgY2xhc3M9InN0NSIvPjxwYXRoIGQ9Im02LjI4OCA0LTMuNTMgMzEuMjV2LTQuMDI4TDUuODMyIDR6IiBjbGFzcz0ic3Q1Ii8+PHBhdGggZD0iTTYuNzQzIDQgMi43NTcgMzkuMjc5VjM1LjI1TDYuMjg4IDR6IiBmaWxsPSIjNmZjYWM5IiBjbGlwLXBhdGg9InVybCgjU1ZHSURfMl8pIi8+PHBhdGggZD0iTTcuMTk5IDQgMi44IDQyLjkxNmwtLjA0NC0uMDA1VjM5LjI4TDYuNzQzIDR6IiBmaWxsPSIjNmVjYWM5IiBjbGlwLXBhdGg9InVybCgjU1ZHSURfMl8pIi8+PHBhdGggZD0ibTcuNjU0IDQtNC40IDM4Ljk0aC0uMjQybC0uMjEtLjAyNEw3LjE5OSA0eiIgY2xhc3M9InN0OCIvPjxwYXRoIGQ9Im04LjEwOSA0LTQuNCAzOC45NGgtLjQ1NUw3LjY1NCA0eiIgY2xhc3M9InN0OCIvPjxwYXRoIGQ9Im04LjU2NCA0LTQuNCAzOC45NEgzLjcxTDguMTEgNHoiIGZpbGw9IiM2Y2M5YzgiIGNsaXAtcGF0aD0idXJsKCNTVkdJRF8yXykiLz48cGF0aCBkPSJtOS4wMiA0LTQuNCAzOC45NGgtLjQ1Nkw4LjU2NCA0eiIgZmlsbD0iIzZiYzljOCIgY2xpcC1wYXRoPSJ1cmwoI1NWR0lEXzJfKSIvPjxwYXRoIGQ9Im05LjQ3NSA0LTQuNCAzOC45NEg0LjYyTDkuMDIgNHoiIGZpbGw9IiM2YWM5YzgiIGNsaXAtcGF0aD0idXJsKCNTVkdJRF8yXykiLz48cGF0aCBkPSJtOS45MyA0LTQuNCAzOC45NGgtLjQ1NUw5LjQ3NSA0eiIgZmlsbD0iIzY5YzhjOCIgY2xpcC1wYXRoPSJ1cmwoI1NWR0lEXzJfKSIvPjxwYXRoIGQ9Im0xMC4zODUgNC00LjQgMzguOTRINS41M0w5LjkzIDR6IiBmaWxsPSIjNjhjOGM3IiBjbGlwLXBhdGg9InVybCgjU1ZHSURfMl8pIi8+PHBhdGggZD0ibTEwLjg0IDQtNC40IDM4Ljk0aC0uNDU1TDEwLjM4NSA0eiIgZmlsbD0iIzY3YzhjNyIgY2xpcC1wYXRoPSJ1cmwoI1NWR0lEXzJfKSIvPjxwYXRoIGQ9Im0xMS4yOTUgNC00LjQgMzguOTRINi40NEwxMC44NCA0eiIgZmlsbD0iIzY2YzdjNyIgY2xpcC1wYXRoPSJ1cmwoI1NWR0lEXzJfKSIvPjxwYXRoIGQ9Im0xMS43NSA0LTQuNCAzOC45NGgtLjQ1NEwxMS4yOTYgNHoiIGZpbGw9IiM2NWM3YzYiIGNsaXAtcGF0aD0idXJsKCNTVkdJRF8yXykiLz48cGF0aCBkPSJtMTIuMjA2IDQtNC40IDM4Ljk0aC0uNDU1TDExLjc1IDR6IiBmaWxsPSIjNjRjN2M2IiBjbGlwLXBhdGg9InVybCgjU1ZHSURfMl8pIi8+PHBhdGggZD0ibTEyLjY2MSA0LTQuNCAzOC45NGgtLjQ1NUwxMi4yMDYgNHoiIGZpbGw9IiM2MmM3YzYiIGNsaXAtcGF0aD0idXJsKCNTVkdJRF8yXykiLz48cGF0aCBkPSJtMTMuMTE2IDQtNC40IDM4Ljk0aC0uNDU1TDEyLjY2MSA0eiIgZmlsbD0iIzYxYzZjNiIgY2xpcC1wYXRoPSJ1cmwoI1NWR0lEXzJfKSIvPjxwYXRoIGQ9Im0xMy41NzIgNC00LjQgMzguOTRoLS40NTZMMTMuMTE2IDR6IiBmaWxsPSIjNjBjNmM1IiBjbGlwLXBhdGg9InVybCgjU1ZHSURfMl8pIi8+PHBhdGggZD0ibTE0LjAyNyA0LTQuNCAzOC45NGgtLjQ1NUwxMy41NzIgNHoiIGZpbGw9IiM1ZWM2YzUiIGNsaXAtcGF0aD0idXJsKCNTVkdJRF8yXykiLz48cGF0aCBkPSJtMTQuNDgyIDQtNC40IDM4Ljk0aC0uNDU1TDE0LjAyNyA0eiIgZmlsbD0iIzVkYzVjNSIgY2xpcC1wYXRoPSJ1cmwoI1NWR0lEXzJfKSIvPjxwYXRoIGQ9Im0xNC45MzcgNC00LjQgMzguOTRoLS40NTVMMTQuNDgyIDR6IiBmaWxsPSIjNWJjNWM0IiBjbGlwLXBhdGg9InVybCgjU1ZHSURfMl8pIi8+PHBhdGggZD0ibTE1LjM5MiA0LTQuNCAzOC45NGgtLjQ1NUwxNC45MzcgNHoiIGZpbGw9IiM1YWM1YzQiIGNsaXAtcGF0aD0idXJsKCNTVkdJRF8yXykiLz48cGF0aCBkPSJtMTUuODQ4IDQtNC40IDM4Ljk0aC0uNDU2TDE1LjM5MiA0eiIgZmlsbD0iIzU4YzRjMyIgY2xpcC1wYXRoPSJ1cmwoI1NWR0lEXzJfKSIvPjxwYXRoIGQ9Im0xNi4zMDMgNC00LjQgMzguOTRoLS40NTVMMTUuODQ4IDR6IiBmaWxsPSIjNTdjNGMzIiBjbGlwLXBhdGg9InVybCgjU1ZHSURfMl8pIi8+PHBhdGggZD0ibTE2Ljc1OCA0LTQuNCAzOC45NGgtLjQ1NUwxNi4zMDMgNHoiIGZpbGw9IiM1NWM0YzMiIGNsaXAtcGF0aD0idXJsKCNTVkdJRF8yXykiLz48cGF0aCBkPSJtMTcuMjEzIDQtNC40IDM4Ljk0aC0uNDU1TDE2Ljc1OCA0eiIgZmlsbD0iIzUzYzNjMiIgY2xpcC1wYXRoPSJ1cmwoI1NWR0lEXzJfKSIvPjxwYXRoIGQ9Im0xNy42NjggNC00LjQgMzguOTRoLS40NTVMMTcuMjEzIDR6IiBmaWxsPSIjNTFjM2MyIiBjbGlwLXBhdGg9InVybCgjU1ZHSURfMl8pIi8+PHBhdGggZD0ibTE4LjEyNCA0LTQuNCAzOC45NGgtLjQ1NUwxNy42NjkgNHoiIGZpbGw9IiM0ZmMzYzEiIGNsaXAtcGF0aD0idXJsKCNTVkdJRF8yXykiLz48cGF0aCBkPSJtMTguNTc5IDQtNC40IDM4Ljk0aC0uNDU1TDE4LjEyNCA0eiIgZmlsbD0iIzRkYzJjMSIgY2xpcC1wYXRoPSJ1cmwoI1NWR0lEXzJfKSIvPjxwYXRoIGQ9Im0xOS4wMzQgNC00LjQgMzguOTRoLS40NTVMMTguNTc5IDR6IiBmaWxsPSIjNGJjMmMwIiBjbGlwLXBhdGg9InVybCgjU1ZHSURfMl8pIi8+PHBhdGggZD0ibTE5LjQ5IDQtNC40IDM4Ljk0aC0uNDU2TDE5LjAzNCA0eiIgZmlsbD0iIzQ5YzFjMCIgY2xpcC1wYXRoPSJ1cmwoI1NWR0lEXzJfKSIvPjxwYXRoIGQ9Im0xOS45NDQgNC00LjQgMzguOTRoLS40NTVMMTkuNDkgNHoiIGZpbGw9IiM0NmMxYzAiIGNsaXAtcGF0aD0idXJsKCNTVkdJRF8yXykiLz48cGF0aCBkPSJNMjAuNCA0IDE2IDQyLjk0aC0uNDU1TDE5Ljk0NSA0eiIgZmlsbD0iIzQ0YzBiZiIgY2xpcC1wYXRoPSJ1cmwoI1NWR0lEXzJfKSIvPjxwYXRoIGQ9Im0yMC44NTUgNC00LjQgMzguOTRIMTZMMjAuNCA0eiIgZmlsbD0iIzQxYzBiZiIgY2xpcC1wYXRoPSJ1cmwoI1NWR0lEXzJfKSIvPjxwYXRoIGQ9Im0yMS4zMSA0LTQuNCAzOC45NGgtLjQ1NUwyMC44NTUgNHoiIGZpbGw9IiMzZWMwYmUiIGNsaXAtcGF0aD0idXJsKCNTVkdJRF8yXykiLz48cGF0aCBkPSJtMjEuNzY1IDQtNC40IDM4Ljk0aC0uNDU1TDIxLjMxIDR6IiBmaWxsPSIjM2JiZmJlIiBjbGlwLXBhdGg9InVybCgjU1ZHSURfMl8pIi8+PHBhdGggZD0ibTIyLjIyIDQtNC40IDM4Ljk0aC0uNDU1TDIxLjc2NSA0eiIgZmlsbD0iIzM4YmZiZCIgY2xpcC1wYXRoPSJ1cmwoI1NWR0lEXzJfKSIvPjxwYXRoIGQ9Im0yMi42NzYgNC00LjQgMzguOTRoLS40NTVMMjIuMjIgNHoiIGZpbGw9IiMzNGJlYmQiIGNsaXAtcGF0aD0idXJsKCNTVkdJRF8yXykiLz48cGF0aCBkPSJtMjMuMTMgNC00LjQgMzguOTRoLS40NTRMMjIuNjc2IDR6IiBmaWxsPSIjMzBiZWJjIiBjbGlwLXBhdGg9InVybCgjU1ZHSURfMl8pIi8+PHBhdGggZD0ibTIzLjU4NiA0LTQuNCAzOC45NGgtLjQ1NUwyMy4xMyA0eiIgZmlsbD0iIzJjYmRiYiIgY2xpcC1wYXRoPSJ1cmwoI1NWR0lEXzJfKSIvPjxwYXRoIGQ9Im0yNC4wNDEgNC00LjQgMzguOTRoLS40NTVMMjMuNTg2IDR6IiBmaWxsPSIjMjdiZGJiIiBjbGlwLXBhdGg9InVybCgjU1ZHSURfMl8pIi8+PHBhdGggZD0ibTI0LjQ5NiA0LTQuNCAzOC45NGgtLjQ1NUwyNC4wNDEgNHoiIGZpbGw9IiMyMWJjYmEiIGNsaXAtcGF0aD0idXJsKCNTVkdJRF8yXykiLz48cGF0aCBkPSJtMjQuOTUyIDQtNC40IDM4Ljk0aC0uNDU1TDI0LjQ5NiA0eiIgZmlsbD0iIzFhYmNiYSIgY2xpcC1wYXRoPSJ1cmwoI1NWR0lEXzJfKSIvPjxwYXRoIGQ9Im0yNS40MDcgNC00LjQgMzguOTRoLS40NTVMMjQuOTUyIDR6IiBmaWxsPSIjMTBiYmI5IiBjbGlwLXBhdGg9InVybCgjU1ZHSURfMl8pIi8+PHBhdGggZD0ibTI1Ljg2MiA0LTQuNCAzOC45NGgtLjQ1NUwyNS40MDcgNHoiIGZpbGw9IiMwMGJiYjkiIGNsaXAtcGF0aD0idXJsKCNTVkdJRF8yXykiLz48cGF0aCBkPSJtMjYuMzE3IDQtNC40IDM4Ljk0aC0uNDU1TDI1Ljg2MiA0eiIgZmlsbD0iIzAwYmFiOCIgY2xpcC1wYXRoPSJ1cmwoI1NWR0lEXzJfKSIvPjxwYXRoIGQ9Im0yNi43NzIgNC00LjQgMzguOTRoLS40NTVMMjYuMzE3IDR6IiBmaWxsPSIjMDBiYWI3IiBjbGlwLXBhdGg9InVybCgjU1ZHSURfMl8pIi8+PHBhdGggZD0ibTI3LjIyOCA0LTQuNCAzOC45NGgtLjQ1NUwyNi43NzMgNHoiIGZpbGw9IiMwMGI5YjciIGNsaXAtcGF0aD0idXJsKCNTVkdJRF8yXykiLz48cGF0aCBkPSJtMjcuNjgzIDQtNC40IDM4Ljk0aC0uNDU1TDI3LjIyOCA0eiIgZmlsbD0iIzAwYjliNiIgY2xpcC1wYXRoPSJ1cmwoI1NWR0lEXzJfKSIvPjxwYXRoIGQ9Im0yOC4xMzggNC00LjQgMzguOTRoLS40NTVMMjcuNjgzIDR6IiBmaWxsPSIjMDBiOGI2IiBjbGlwLXBhdGg9InVybCgjU1ZHSURfMl8pIi8+PHBhdGggZD0ibTI4LjU5MyA0LTQuNCAzOC45NGgtLjQ1NUwyOC4xMzggNHoiIGZpbGw9IiMwMGI3YjUiIGNsaXAtcGF0aD0idXJsKCNTVkdJRF8yXykiLz48cGF0aCBkPSJtMjkuMDQ5IDQtNC40IDM4Ljk0aC0uNDU2TDI4LjU5MyA0eiIgZmlsbD0iIzAwYjdiNCIgY2xpcC1wYXRoPSJ1cmwoI1NWR0lEXzJfKSIvPjxwYXRoIGQ9Im0yOS41MDQgNC00LjQgMzguOTRoLS40NTVMMjkuMDQ5IDR6IiBmaWxsPSIjMDBiNmI0IiBjbGlwLXBhdGg9InVybCgjU1ZHSURfMl8pIi8+PHBhdGggZD0ibTI5Ljk1OSA0LTQuNCAzOC45NGgtLjQ1NUwyOS41MDQgNHoiIGZpbGw9IiMwMGI2YjMiIGNsaXAtcGF0aD0idXJsKCNTVkdJRF8yXykiLz48cGF0aCBkPSJtMzAuNDE0IDQtNC40IDM4Ljk0aC0uNDU1TDI5Ljk1OSA0eiIgY2xhc3M9InN0NTciLz48cGF0aCBkPSJtMzAuODcgNC00LjQgMzguOTRoLS40NTZMMzAuNDE0IDR6IiBjbGFzcz0ic3Q1NyIvPjxwYXRoIGQ9Im0zMS4zMjUgNC00LjQgMzguOTRoLS40NTZMMzAuODcgNHoiIGZpbGw9IiMwMGI0YjEiIGNsaXAtcGF0aD0idXJsKCNTVkdJRF8yXykiLz48cGF0aCBkPSJtMzEuNzggNC00LjQgMzguOTRoLS40NTVMMzEuMzI1IDR6IiBjbGFzcz0ic3Q1OSIvPjxwYXRoIGQ9Im0zMi4yMzUgNC00LjQgMzguOTRoLS40NTVMMzEuNzggNHoiIGNsYXNzPSJzdDU5Ii8+PHBhdGggZD0ibTMyLjY5IDQtNC40IDM4Ljk0aC0uNDU1TDMyLjIzNSA0eiIgZmlsbD0iIzAwYjJhZiIgY2xpcC1wYXRoPSJ1cmwoI1NWR0lEXzJfKSIvPjxwYXRoIGQ9Im0zMy4xNDUgNC00LjQgMzguOTRoLS40NTVMMzIuNjkgNHoiIGZpbGw9IiMwMGIyYWUiIGNsaXAtcGF0aD0idXJsKCNTVkdJRF8yXykiLz48cGF0aCBkPSJtMzMuNiA0LTQuNCAzOC45NGgtLjQ1NUwzMy4xNDYgNHoiIGZpbGw9IiMwMGIxYWQiIGNsaXAtcGF0aD0idXJsKCNTVkdJRF8yXykiLz48cGF0aCBkPSJtMzQuMDU2IDQtNC40IDM4Ljk0aC0uNDU1TDMzLjYgNHoiIGNsYXNzPSJzdDYzIi8+PHBhdGggZD0ibTQxLjQ0MiA0IC4yNTUuMDI5VjQyLjk0SDI5LjY1NkwzNC4wNTYgNHoiIGNsYXNzPSJzdDYzIi8+PGRlZnM+PHBhdGggZD0iTTY3LjM1OCAxNS4xNjVoMTYuMTV2MTYuMTVoLTE2LjE1eiIgdHJhbnNmb3JtPSJyb3RhdGUoLTEzNS4yMTMgNzUuNDMzIDIzLjI0KSIgaWQ9IlNWR0lEXzNfIi8+PC9kZWZzPjxjbGlwUGF0aCBpZD0iU1ZHSURfNF8iPjx1c2Ugb3ZlcmZsb3c9InZpc2libGUiIHhsaW5rOmhyZWY9IiNTVkdJRF8zXyIvPjwvY2xpcFBhdGg+PHBhdGggZD0ibTg2Ljg1NCAxOC40OTEtLjMxMS02LjY3MWguMzF6IiBmaWxsPSIjNzRjYmNiIiBjbGlwLXBhdGg9InVybCgjU1ZHSURfNF8pIi8+PHBhdGggZD0ibTg2Ljg1NCAyNS41MDEtLjYzOC0xMy42ODFoLjMyN2wuMzEgNi42NzF6IiBmaWxsPSIjNzNjYmNiIiBjbGlwLXBhdGg9InVybCgjU1ZHSURfNF8pIi8+PHBhdGggZD0iTTg2Ljg1NCAzMi41MTEgODUuODkgMTEuODJoLjMyNmwuNjM3IDEzLjY4MXoiIGZpbGw9IiM3M2NiY2EiIGNsaXAtcGF0aD0idXJsKCNTVkdJRF80XykiLz48cGF0aCBkPSJtODYuNjI3IDM0LjY2LTEuMDY0LTIyLjg0aC4zMjdsLjk2MyAyMC42OTF2Mi4xNXoiIGZpbGw9IiM3MmNiY2EiIGNsaXAtcGF0aD0idXJsKCNTVkdJRF80XykiLz48cGF0aCBkPSJtODYuMyAzNC42Ni0xLjA2My0yMi44NGguMzI2bDEuMDY0IDIyLjg0eiIgZmlsbD0iIzcxY2FjYSIgY2xpcC1wYXRoPSJ1cmwoI1NWR0lEXzRfKSIvPjxwYXRoIGQ9Ik04NS45NzQgMzQuNjYgODQuOTEgMTEuODJoLjMyN0w4Ni4zIDM0LjY2eiIgZmlsbD0iIzcwY2FjYSIgY2xpcC1wYXRoPSJ1cmwoI1NWR0lEXzRfKSIvPjxwYXRoIGQ9Im04NS42NDggMzQuNjYtMS4wNjQtMjIuODRoLjMyNmwxLjA2NCAyMi44NHoiIGNsYXNzPSJzdDcwIi8+PHBhdGggZD0ibTg1LjMyMSAzNC42Ni0xLjA2NC0yMi44NGguMzI3bDEuMDY0IDIyLjg0eiIgY2xhc3M9InN0NzAiLz48cGF0aCBkPSJNODQuOTk1IDM0LjY2IDgzLjkzIDExLjgyaC4zMjZsMS4wNjQgMjIuODR6IiBmaWxsPSIjNmVjOWM5IiBjbGlwLXBhdGg9InVybCgjU1ZHSURfNF8pIi8+PHBhdGggZD0ibTg0LjY2OCAzNC42Ni0xLjA2NC0yMi44NGguMzI3bDEuMDY0IDIyLjg0eiIgZmlsbD0iIzZkYzljOSIgY2xpcC1wYXRoPSJ1cmwoI1NWR0lEXzRfKSIvPjxwYXRoIGQ9Im04NC4zNDIgMzQuNjYtMS4wNjQtMjIuODRoLjMyNmwxLjA2NCAyMi44NHoiIGZpbGw9IiM2Y2M5YzgiIGNsaXAtcGF0aD0idXJsKCNTVkdJRF80XykiLz48cGF0aCBkPSJtODQuMDE1IDM0LjY2LTEuMDY0LTIyLjg0aC4zMjdsMS4wNjQgMjIuODR6IiBmaWxsPSIjNmJjOWM4IiBjbGlwLXBhdGg9InVybCgjU1ZHSURfNF8pIi8+PHBhdGggZD0ibTgzLjY4OSAzNC42Ni0xLjA2NC0yMi44NGguMzI2bDEuMDY0IDIyLjg0eiIgZmlsbD0iIzZhYzhjOCIgY2xpcC1wYXRoPSJ1cmwoI1NWR0lEXzRfKSIvPjxwYXRoIGQ9Im04My4zNjIgMzQuNjYtMS4wNjQtMjIuODRoLjMyN2wxLjA2NCAyMi44NHoiIGZpbGw9IiM2OWM4YzgiIGNsaXAtcGF0aD0idXJsKCNTVkdJRF80XykiLz48cGF0aCBkPSJtODMuMDM2IDM0LjY2LTEuMDY0LTIyLjg0aC4zMjZsMS4wNjQgMjIuODR6IiBmaWxsPSIjNjhjOGM3IiBjbGlwLXBhdGg9InVybCgjU1ZHSURfNF8pIi8+PHBhdGggZD0ibTgyLjcwOSAzNC42Ni0xLjA2NC0yMi44NGguMzI3bDEuMDY0IDIyLjg0eiIgZmlsbD0iIzY3YzhjNyIgY2xpcC1wYXRoPSJ1cmwoI1NWR0lEXzRfKSIvPjxwYXRoIGQ9Im04Mi4zODMgMzQuNjYtMS4wNjQtMjIuODRoLjMyNmwxLjA2NCAyMi44NHoiIGZpbGw9IiM2NmM3YzciIGNsaXAtcGF0aD0idXJsKCNTVkdJRF80XykiLz48cGF0aCBkPSJtODIuMDU2IDM0LjY2LTEuMDY0LTIyLjg0aC4zMjdsMS4wNjQgMjIuODR6IiBmaWxsPSIjNjVjN2M2IiBjbGlwLXBhdGg9InVybCgjU1ZHSURfNF8pIi8+PHBhdGggZD0ibTgxLjczIDM0LjY2LTEuMDY0LTIyLjg0aC4zMjZsMS4wNjQgMjIuODR6IiBmaWxsPSIjNjNjN2M2IiBjbGlwLXBhdGg9InVybCgjU1ZHSURfNF8pIi8+PHBhdGggZD0ibTgxLjQwMyAzNC42Ni0xLjA2NC0yMi44NGguMzI3bDEuMDY0IDIyLjg0eiIgZmlsbD0iIzYyYzdjNiIgY2xpcC1wYXRoPSJ1cmwoI1NWR0lEXzRfKSIvPjxwYXRoIGQ9Im04MS4wNzcgMzQuNjYtMS4wNjQtMjIuODRoLjMyNmwxLjA2NCAyMi44NHoiIGZpbGw9IiM2MWM2YzYiIGNsaXAtcGF0aD0idXJsKCNTVkdJRF80XykiLz48cGF0aCBkPSJtODAuNzUgMzQuNjYtMS4wNjQtMjIuODRoLjMyN2wxLjA2NCAyMi44NHoiIGZpbGw9IiM2MGM2YzUiIGNsaXAtcGF0aD0idXJsKCNTVkdJRF80XykiLz48cGF0aCBkPSJNODAuNDI0IDM0LjY2IDc5LjM2IDExLjgyaC4zMjZsMS4wNjQgMjIuODR6IiBmaWxsPSIjNWZjNmM1IiBjbGlwLXBhdGg9InVybCgjU1ZHSURfNF8pIi8+PHBhdGggZD0ibTgwLjA5NyAzNC42Ni0xLjA2NC0yMi44NGguMzI3bDEuMDY0IDIyLjg0eiIgZmlsbD0iIzVkYzVjNSIgY2xpcC1wYXRoPSJ1cmwoI1NWR0lEXzRfKSIvPjxwYXRoIGQ9Im03OS43NyAzNC42Ni0xLjA2My0yMi44NGguMzI2bDEuMDY0IDIyLjg0eiIgZmlsbD0iIzVjYzVjNCIgY2xpcC1wYXRoPSJ1cmwoI1NWR0lEXzRfKSIvPjxwYXRoIGQ9Ik03OS40NDQgMzQuNjYgNzguMzggMTEuODJoLjMyN2wxLjA2NCAyMi44NHoiIGZpbGw9IiM1YmM1YzQiIGNsaXAtcGF0aD0idXJsKCNTVkdJRF80XykiLz48cGF0aCBkPSJtNzkuMTE4IDM0LjY2LTEuMDY0LTIyLjg0aC4zMjZsMS4wNjQgMjIuODR6IiBmaWxsPSIjNTljNWM0IiBjbGlwLXBhdGg9InVybCgjU1ZHSURfNF8pIi8+PHBhdGggZD0ibTc4Ljc5MSAzNC42Ni0xLjA2NC0yMi44NGguMzI3bDEuMDY0IDIyLjg0eiIgZmlsbD0iIzU4YzRjMyIgY2xpcC1wYXRoPSJ1cmwoI1NWR0lEXzRfKSIvPjxwYXRoIGQ9Ik03OC40NjUgMzQuNjYgNzcuNCAxMS44MmguMzI2bDEuMDY0IDIyLjg0eiIgZmlsbD0iIzU3YzRjMyIgY2xpcC1wYXRoPSJ1cmwoI1NWR0lEXzRfKSIvPjxwYXRoIGQ9Im03OC4xMzggMzQuNjYtMS4wNjQtMjIuODRoLjMyN2wxLjA2NCAyMi44NHoiIGZpbGw9IiM1NWM0YzMiIGNsaXAtcGF0aD0idXJsKCNTVkdJRF80XykiLz48cGF0aCBkPSJtNzcuODEyIDM0LjY2LTEuMDY0LTIyLjg0aC4zMjZsMS4wNjQgMjIuODR6IiBmaWxsPSIjNTRjM2MyIiBjbGlwLXBhdGg9InVybCgjU1ZHSURfNF8pIi8+PHBhdGggZD0ibTc3LjQ4NSAzNC42Ni0xLjA2NC0yMi44NGguMzI3bDEuMDY0IDIyLjg0eiIgZmlsbD0iIzUyYzNjMiIgY2xpcC1wYXRoPSJ1cmwoI1NWR0lEXzRfKSIvPjxwYXRoIGQ9Im03Ny4xNTkgMzQuNjYtMS4wNjQtMjIuODRoLjMyNmwxLjA2NCAyMi44NHoiIGZpbGw9IiM1MGMzYzIiIGNsaXAtcGF0aD0idXJsKCNTVkdJRF80XykiLz48cGF0aCBkPSJtNzYuODMyIDM0LjY2LTEuMDY0LTIyLjg0aC4zMjdsMS4wNjQgMjIuODR6IiBmaWxsPSIjNGZjMmMxIiBjbGlwLXBhdGg9InVybCgjU1ZHSURfNF8pIi8+PHBhdGggZD0ibTc2LjUwNiAzNC42Ni0xLjA2NC0yMi44NGguMzI2bDEuMDY0IDIyLjg0eiIgZmlsbD0iIzRkYzJjMSIgY2xpcC1wYXRoPSJ1cmwoI1NWR0lEXzRfKSIvPjxwYXRoIGQ9Im03Ni4xNzkgMzQuNjYtMS4wNjQtMjIuODRoLjMyN2wxLjA2NCAyMi44NHoiIGZpbGw9IiM0YmMyYzEiIGNsaXAtcGF0aD0idXJsKCNTVkdJRF80XykiLz48cGF0aCBkPSJtNzUuODUzIDM0LjY2LTEuMDY0LTIyLjg0aC4zMjZsMS4wNjQgMjIuODR6IiBmaWxsPSIjNGFjMWMwIiBjbGlwLXBhdGg9InVybCgjU1ZHSURfNF8pIi8+PHBhdGggZD0ibTc1LjUyNiAzNC42Ni0xLjA2NC0yMi44NGguMzI3bDEuMDY0IDIyLjg0eiIgZmlsbD0iIzQ4YzFjMCIgY2xpcC1wYXRoPSJ1cmwoI1NWR0lEXzRfKSIvPjxwYXRoIGQ9Im03NS4yIDM0LjY2LTEuMDY0LTIyLjg0aC4zMjZsMS4wNjQgMjIuODR6IiBmaWxsPSIjNDZjMWMwIiBjbGlwLXBhdGg9InVybCgjU1ZHSURfNF8pIi8+PHBhdGggZD0ibTc0Ljg3MyAzNC42Ni0xLjA2NC0yMi44NGguMzI3TDc1LjIgMzQuNjZ6IiBmaWxsPSIjNDRjMWJmIiBjbGlwLXBhdGg9InVybCgjU1ZHSURfNF8pIi8+PHBhdGggZD0ibTc0LjU0NyAzNC42Ni0xLjA2NC0yMi44NGguMzI2bDEuMDY0IDIyLjg0eiIgZmlsbD0iIzQyYzBiZiIgY2xpcC1wYXRoPSJ1cmwoI1NWR0lEXzRfKSIvPjxwYXRoIGQ9Im03NC4yMiAzNC42Ni0xLjA2NC0yMi44NGguMzI3bDEuMDY0IDIyLjg0eiIgZmlsbD0iIzQwYzBiZSIgY2xpcC1wYXRoPSJ1cmwoI1NWR0lEXzRfKSIvPjxwYXRoIGQ9Ik03My44OTQgMzQuNjYgNzIuODMgMTEuODJoLjMyNmwxLjA2NCAyMi44NHoiIGZpbGw9IiMzZWMwYmUiIGNsaXAtcGF0aD0idXJsKCNTVkdJRF80XykiLz48cGF0aCBkPSJtNzMuNTY3IDM0LjY2LTEuMDY0LTIyLjg0aC4zMjdsMS4wNjQgMjIuODR6IiBmaWxsPSIjM2NiZmJlIiBjbGlwLXBhdGg9InVybCgjU1ZHSURfNF8pIi8+PHBhdGggZD0ibTczLjI0IDM0LjY2LTEuMDYzLTIyLjg0aC4zMjZsMS4wNjQgMjIuODR6IiBmaWxsPSIjMzliZmJkIiBjbGlwLXBhdGg9InVybCgjU1ZHSURfNF8pIi8+PHBhdGggZD0iTTcyLjkxNCAzNC42NiA3MS44NSAxMS44MmguMzI3bDEuMDY0IDIyLjg0eiIgZmlsbD0iIzM3YmZiZCIgY2xpcC1wYXRoPSJ1cmwoI1NWR0lEXzRfKSIvPjxwYXRoIGQ9Im03Mi41ODggMzQuNjYtMS4wNjQtMjIuODRoLjMyNmwxLjA2NCAyMi44NHoiIGZpbGw9IiMzNGJlYmQiIGNsaXAtcGF0aD0idXJsKCNTVkdJRF80XykiLz48cGF0aCBkPSJtNzIuMjYxIDM0LjY2LTEuMDY0LTIyLjg0aC4zMjdsMS4wNjMgMjIuODR6IiBmaWxsPSIjMzJiZWJjIiBjbGlwLXBhdGg9InVybCgjU1ZHSURfNF8pIi8+PHBhdGggZD0iTTcxLjkzNSAzNC42NiA3MC44NyAxMS44MmguMzI2bDEuMDY0IDIyLjg0eiIgZmlsbD0iIzJmYmRiYyIgY2xpcC1wYXRoPSJ1cmwoI1NWR0lEXzRfKSIvPjxwYXRoIGQ9Im03MS42MDggMzQuNjYtMS4wNjQtMjIuODRoLjMyN2wxLjA2NCAyMi44NHoiIGZpbGw9IiMyY2JkYmIiIGNsaXAtcGF0aD0idXJsKCNTVkdJRF80XykiLz48cGF0aCBkPSJtNzEuMjgyIDM0LjY2LTEuMDY0LTIyLjg0aC4zMjZsMS4wNjQgMjIuODR6IiBmaWxsPSIjMjhiZGJiIiBjbGlwLXBhdGg9InVybCgjU1ZHSURfNF8pIi8+PHBhdGggZD0ibTcwLjk1NSAzNC42Ni0xLjA2NC0yMi44NGguMzI3bDEuMDYzIDIyLjg0eiIgZmlsbD0iIzI1YmNiYiIgY2xpcC1wYXRoPSJ1cmwoI1NWR0lEXzRfKSIvPjxwYXRoIGQ9Im03MC42MjkgMzQuNjYtMS4wNjQtMjIuODRoLjMyNmwxLjA2NCAyMi44NHoiIGZpbGw9IiMyMWJjYmEiIGNsaXAtcGF0aD0idXJsKCNTVkdJRF80XykiLz48cGF0aCBkPSJtNzAuMzAyIDM0LjY2LTEuMDY0LTIyLjg0aC4zMjdsMS4wNjQgMjIuODR6IiBmaWxsPSIjMWNiY2JhIiBjbGlwLXBhdGg9InVybCgjU1ZHSURfNF8pIi8+PHBhdGggZD0ibTY5Ljk3NiAzNC42Ni0xLjA2NC0yMi44NGguMzI2bDEuMDY0IDIyLjg0eiIgZmlsbD0iIzE2YmJiYSIgY2xpcC1wYXRoPSJ1cmwoI1NWR0lEXzRfKSIvPjxwYXRoIGQ9Im02OS42NDkgMzQuNjYtMS4wNjQtMjIuODRoLjMyN2wxLjA2MyAyMi44NHoiIGZpbGw9IiMwZmJiYjkiIGNsaXAtcGF0aD0idXJsKCNTVkdJRF80XykiLz48cGF0aCBkPSJtNjkuMzIzIDM0LjY2LTEuMDY0LTIyLjg0aC4zMjZsMS4wNjQgMjIuODR6IiBmaWxsPSIjMDRiYmI5IiBjbGlwLXBhdGg9InVybCgjU1ZHSURfNF8pIi8+PHBhdGggc3R5bGU9ImNsaXAtcGF0aDp1cmwoI1NWR0lEXzRfKTtmaWxsOiMwMGJhYjgiIGQ9Im02OC45OTYgMzQuNjYtMS4wNjQtMjIuODRoLjMyN2wxLjA2MyAyMi44NHptLS4zMjYgMC0xLjA2NC0yMi44NGguMzI2bDEuMDY0IDIyLjg0em0tLjMyNyAwLTEuMDY0LTIyLjg0aC4zMjdsMS4wNjQgMjIuODR6Ii8+PHBhdGggc3R5bGU9ImNsaXAtcGF0aDp1cmwoI1NWR0lEXzRfKTtmaWxsOiMwMGI5YjciIGQ9Im02OC4wMTcgMzQuNjYtMS4wNjQtMjIuODRoLjMyNmwxLjA2NCAyMi44NHptLS4zMjcgMC0xLjA2NC0yMi44NGguMzI3bDEuMDYzIDIyLjg0eiIvPjxwYXRoIGQ9Ik02Ny4zNjQgMzQuNjYgNjYuMyAxMS44MmguMzI2bDEuMDY0IDIyLjg0eiIgZmlsbD0iIzAwYjliNiIgY2xpcC1wYXRoPSJ1cmwoI1NWR0lEXzRfKSIvPjxwYXRoIHN0eWxlPSJjbGlwLXBhdGg6dXJsKCNTVkdJRF80Xyk7ZmlsbDojMDBiOGI2IiBkPSJtNjcuMDM3IDM0LjY2LTEuMDY0LTIyLjg0aC4zMjdsMS4wNjQgMjIuODR6bS0uMzI3IDAtMS4wNjMtMjIuODRoLjMyNmwxLjA2NCAyMi44NHoiLz48cGF0aCBkPSJNNjYuMzg0IDM0LjY2IDY1LjMyIDExLjgyaC4zMjdsMS4wNjMgMjIuODR6IiBmaWxsPSIjMDBiOGI1IiBjbGlwLXBhdGg9InVybCgjU1ZHSURfNF8pIi8+PHBhdGggZD0ibTY2LjA1OCAzNC42Ni0xLjA2NC0yMi44NGguMzI2bDEuMDY0IDIyLjg0eiIgZmlsbD0iIzAwYjdiNSIgY2xpcC1wYXRoPSJ1cmwoI1NWR0lEXzRfKSIvPjxwYXRoIHN0eWxlPSJmaWxsOiMwMGI3YjQ7Y2xpcC1wYXRoOnVybCgjU1ZHSURfNF8pIiBkPSJtNjUuNzMxIDM0LjY2LTEuMDY0LTIyLjg0aC4zMjdsMS4wNjMgMjIuODR6bS0uMzI2IDBMNjQuMzQgMTEuODJoLjMyNmwxLjA2NCAyMi44NHoiLz48cGF0aCBkPSJtNjUuMDc4IDM0LjY2LTEuMDY0LTIyLjg0aC4zMjdsMS4wNjQgMjIuODR6IiBmaWxsPSIjMDBiNmI0IiBjbGlwLXBhdGg9InVybCgjU1ZHSURfNF8pIi8+PHBhdGggc3R5bGU9ImNsaXAtcGF0aDp1cmwoI1NWR0lEXzRfKTtmaWxsOiMwMGI2YjMiIGQ9Im02NC43NTEgMzQuNjYtLjczOC0xNS44NThWMTEuODJoLjAwMWwxLjA2NCAyMi44NHptLS4zMjYgMC0uNDEyLTguODQ4di03LjAxbC43MzggMTUuODU4eiIvPjxwYXRoIHN0eWxlPSJjbGlwLXBhdGg6dXJsKCNTVkdJRF80Xyk7ZmlsbDojMDBiNWIyIiBkPSJtNjQuMDk5IDM0LjY2LS4wODYtMS44Mzh2LTcuMDFsLjQxMiA4Ljg0OHptLS4wODYtMS44MzguMDg1IDEuODM4aC0uMDg1eiIvPjxwYXRoIGQ9Ik0yMy4wMSAxMS42OTggMTEuMjY1IDIzLjUzMiAyMy4wOTggMzUuMjhsMTAuMDEyLS4wMzctMTAuNS0xMC40MTUgNTEuODQyLS4xOTMtNC41NDMgNC41NzUgNS4wMDUtLjAxOSA1Ljg3NC01LjkxNy01LjkxNy01Ljg3My01LjAwNi4wMTkgNC41NzggNC41NC01MS44NDIuMTkzIDEwLjQyLTEwLjQ5MnoiIGNsYXNzPSJzdDAiLz48L3N2Zz4=;" parent="pVB1kBmUra2NY2BU2NWc-26" vertex="1">
          <mxGeometry x="2.92" y="3.72" width="62.04" height="26.28" as="geometry" />
        </mxCell>
        <mxCell id="pVB1kBmUra2NY2BU2NWc-29" value="" style="shape=image;verticalLabelPosition=bottom;labelBackgroundColor=default;verticalAlign=top;aspect=fixed;imageAspect=0;image=https://raw.githubusercontent.com/hyperium/tonic/e1993877c430906500aeda9ab1e3413e68ed483d/.github/assets/tonic-banner.svg;clipPath=inset(15.71% 20.33% 17.14% 19.67%);" parent="1" vertex="1">
          <mxGeometry x="342.55" y="320" width="114.9" height="30" as="geometry" />
        </mxCell>
        <mxCell id="pVB1kBmUra2NY2BU2NWc-33" value="SQLx" style="rounded=1;whiteSpace=wrap;html=1;horizontal=1;fontFamily=Helvetica;" parent="1" vertex="1">
          <mxGeometry x="342.55" y="211" width="117.45" height="30" as="geometry" />
        </mxCell>
        <mxCell id="pVB1kBmUra2NY2BU2NWc-35" value="" style="shape=image;verticalLabelPosition=bottom;labelBackgroundColor=default;verticalAlign=top;aspect=fixed;imageAspect=0;image=https://huggingface.co/datasets/huggingface/brand-assets/resolve/main/hf-logo.svg;" parent="1" vertex="1">
          <mxGeometry x="54.95" y="280" width="66" height="66" as="geometry" />
        </mxCell>
        <mxCell id="pVB1kBmUra2NY2BU2NWc-37" value="" style="shape=image;verticalLabelPosition=bottom;labelBackgroundColor=default;verticalAlign=top;aspect=fixed;imageAspect=0;image=data:image/svg+xml,PHN2ZyB4bWxucz0iaHR0cDovL3d3dy53My5vcmcvMjAwMC9zdmciIGZpbGw9Im5vbmUiIHZpZXdCb3g9IjAgMCA2NCA2NCIgaGVpZ2h0PSI4MDBweCIgd2lkdGg9IjgwMHB4Ij48cGF0aCBmaWxsPSIjMDAwMDAwIiBkPSJtNDcuNzgxIDMxLjYwOC0xLjM0My0uODMyYTE4LjU3IDE4LjU3IDAgMCAwLS4wMzgtLjM5MWwxLjE1NC0xLjA3N2EuNDYuNDYgMCAwIDAtLjE1My0uNzcxbC0xLjQ3Ni0uNTUyYTE2Ljc5OCAxNi43OTggMCAwIDAtLjExNS0uMzgxbC45Mi0xLjI3OWEuNDYyLjQ2MiAwIDAgMC0uMy0uNzI3bC0xLjU1Ny0uMjUzYy0uMDYtLjExOC0uMTIzLS4yMzQtLjE4Ny0uMzVsLjY1NC0xLjQzNWEuNDYuNDYgMCAwIDAtLjQzNy0uNjU0bC0xLjU3OS4wNTVhMTIuNDgyIDEyLjQ4MiAwIDAgMC0uMjUtLjMwMmwuMzYzLTEuNTM5YS40NjEuNDYxIDAgMCAwLS41NTYtLjU1NmwtMS41MzguMzYyYy0uMS0uMDg0LS4yLS4xNjctLjMwMy0uMjVsLjA1NS0xLjU3OGEuNDYuNDYgMCAwIDAtLjY1NC0uNDM3bC0xLjQzNS42NTRhMTYuNzEyIDE2LjcxMiAwIDAgMC0uMzUtLjE4OGwtLjI1My0xLjU1NmEuNDYyLjQ2MiAwIDAgMC0uNzI2LS4zMDFsLTEuMjguOTJhMTQuMzEgMTQuMzEgMCAwIDAtLjM4LS4xMTVsLS41NTItMS40NzZhLjQ2MS40NjEgMCAwIDAtLjc3MS0uMTU0bC0xLjA3NyAxLjE1NmMtLjEzLS4wMTQtLjI2LS4wMjgtLjM5MS0uMDM4bC0uODMyLTEuMzQ0YS40NjIuNDYyIDAgMCAwLS43ODYgMGwtLjgzMiAxLjM0NGMtLjEzLjAxLS4yNjEuMDI0LS4zOTEuMDM4bC0xLjA3Ny0xLjE1NWEuNDY0LjQ2NCAwIDAgMC0uNzcxLjE1M2wtLjU1MiAxLjQ3NmMtLjEyOC4wMzctLjI1NS4wNzYtLjM4LjExNmwtMS4yOC0uOTIxYS40Ni40NiAwIDAgMC0uNzI3LjNsLS4yNTQgMS41NTdjLS4xMTcuMDYxLS4yMzMuMTI0LS4zNS4xODhsLTEuNDM0LS42NTRhLjQ2LjQ2IDAgMCAwLS42NTQuNDM2bC4wNTUgMS41OGMtLjEwMi4wODItLjIwMy4xNjUtLjMwMy4yNWwtMS41MzgtLjM2M2EuNDY0LjQ2NCAwIDAgMC0uNTU3LjU1NmwuMzYzIDEuNTM5Yy0uMDg1LjEtLjE2OC4yLS4yNS4zMDJsLTEuNTc5LS4wNTVhLjQ2Mi40NjIgMCAwIDAtLjQzNy42NTRsLjY1NCAxLjQzNmMtLjA2My4xMTUtLjEyNi4yMzEtLjE4Ny4zNWwtMS41NTYuMjUyYS40NjIuNDYyIDAgMCAwLS4zMDEuNzI3bC45MiAxLjI3OWMtLjA0LjEyNi0uMDc4LjI1My0uMTE1LjM4bC0xLjQ3Ni41NTNhLjQ2Mi40NjIgMCAwIDAtLjE1My43NzFsMS4xNTUgMS4wNzdjLS4wMTUuMTMtLjAyOC4yNi0uMDM5LjM5MWwtMS4zNDMuODMyYS40NjIuNDYyIDAgMCAwIDAgLjc4NmwxLjM0My44MzFjLjAxMS4xMzEuMDI0LjI2Mi4wMzkuMzkybC0xLjE1NSAxLjA3N2EuNDYyLjQ2MiAwIDAgMCAuMTUzLjc3MWwxLjQ3Ni41NTJjLjAzNy4xMjguMDc2LjI1NS4xMTYuMzhsLS45MjEgMS4yOGEuNDYyLjQ2MiAwIDAgMCAuMzAxLjcyNmwxLjU1Ni4yNTNjLjA2MS4xMTguMTIzLjIzNS4xODguMzVsLS42NTUgMS40MzVhLjQ2Mi40NjIgMCAwIDAgLjQzNy42NTRsMS41NzktLjA1NWMuMDgyLjEwMy4xNjUuMjAzLjI1LjMwM2wtLjM2MyAxLjUzOWEuNDYuNDYgMCAwIDAgLjU1Ny41NTVsMS41MzgtLjM2MmMuMS4wODUuMjAxLjE2Ny4zMDMuMjQ5bC0uMDU1IDEuNThhLjQ2MS40NjEgMCAwIDAgLjY1NC40MzZsMS40MzUtLjY1NGMuMTE1LjA2NC4yMzIuMTI3LjM1LjE4OGwuMjUzIDEuNTU1YS40NjEuNDYxIDAgMCAwIC43MjcuMzAybDEuMjc5LS45MjJjLjEyNi4wNC4yNTMuMDguMzguMTE2bC41NTIgMS40NzZhLjQ2LjQ2IDAgMCAwIC43NzEuMTUzbDEuMDc4LTEuMTU1Yy4xMy4wMTUuMjYuMDI4LjM5MS4wNGwuODMyIDEuMzQzYS40NjMuNDYzIDAgMCAwIC43ODYgMGwuODMxLTEuMzQ0Yy4xMzEtLjAxMS4yNjItLjAyNC4zOTItLjAzOWwxLjA3NyAxLjE1NWEuNDYuNDYgMCAwIDAgLjc3LS4xNTNsLjU1My0xLjQ3NmMuMTI3LS4wMzYuMjU0LS4wNzYuMzgtLjExNmwxLjI4LjkyMmEuNDYzLjQ2MyAwIDAgMCAuNzI2LS4zMDJsLjI1NC0xLjU1NmMuMTE3LS4wNi4yMzMtLjEyNC4zNDktLjE4N2wxLjQzNS42NTRhLjQ2MS40NjEgMCAwIDAgLjY1NC0uNDM3bC0uMDU1LTEuNThjLjEwMi0uMDguMjAzLS4xNjMuMzAzLS4yNDhsMS41MzguMzYyYS40Ni40NiAwIDAgMCAuNTU2LS41NTVsLS4zNjItMS41MzljLjA4NC0uMS4xNjctLjIuMjQ5LS4zMDNsMS41OC4wNTVhLjQ2LjQ2IDAgMCAwIC40MzYtLjY1NGwtLjY1NC0xLjQzNWMuMDY0LS4xMTUuMTI2LS4yMzIuMTg3LS4zNWwxLjU1Ni0uMjUzYS40Ni40NiAwIDAgMCAuMzAxLS43MjZsLS45Mi0xLjI4YTE3LjUgMTcuNSAwIDAgMCAuMTE1LS4zOGwxLjQ3Ni0uNTUyYS40Ni40NiAwIDAgMCAuMTUzLS43NzFsLTEuMTU1LTEuMDc3Yy4wMTQtLjEzLjAyNy0uMjYxLjAzOS0uMzkybDEuMzQzLS44MzFhLjQ2Mi40NjIgMCAwIDAgMC0uNzg2ek0zOC43OSA0Mi43NTJhLjk1Mi45NTIgMCAwIDEgLjM5OS0xLjg2MS45NTIuOTUyIDAgMCAxLS40IDEuODYxem0tLjQ1Ny0zLjA4N2EuODY2Ljg2NiAwIDAgMC0xLjAyOC42NjZsLS40NzcgMi4yMjZBMTEuNjQ5IDExLjY0OSAwIDAgMSAzMiA0My41OTdjLTEuNzYgMC0zLjQzLS4zOS00LjkyOS0xLjA4N2wtLjQ3Ny0yLjIyNWEuODY2Ljg2NiAwIDAgMC0xLjAyOC0uNjY3bC0xLjk2NS40MjJhMTEuNjggMTEuNjggMCAwIDEtMS4wMTYtMS4xOTdoOS41NjFjLjEwOCAwIC4xOC0uMDIuMTgtLjExOHYtMy4zODJjMC0uMDk5LS4wNzItLjExOC0uMTgtLjExOEgyOS4zNVYzMy4wOGgzLjAyNGMuMjc2IDAgMS40NzYuMDc5IDEuODYgMS42MTMuMTIuNDcxLjM4NCAyLjAwNi41NjQgMi40OTcuMTguNTUxLjkxMiAxLjY1MiAxLjY5MiAxLjY1Mmg0Ljc2NGEuOTc3Ljk3NyAwIDAgMCAuMTczLS4wMTdjLS4zMy40NDktLjY5My44NzQtMS4wODMgMS4yN2wtMi4wMS0uNDMxem0tMTMuMjIzIDMuMDRhLjk1Mi45NTIgMCAwIDEtLjM5OS0xLjg2MS45NS45NSAwIDAgMSAuMzk4IDEuODYyem0tMy42MjctMTQuNzA3YS45NS45NSAwIDEgMS0xLjczNy43NzEuOTUuOTUgMCAxIDEgMS43MzctLjc3MXptLTEuMTE1IDIuNjQzIDIuMDQ3LS45MWEuODY4Ljg2OCAwIDAgMCAuNDQtMS4xNDVsLS40MjEtLjk1M2gxLjY1OHY3LjQ3NGgtMy4zNDVhMTEuNzE0IDExLjcxNCAwIDAgMS0uMzgtNC40NjZ6bTguOTgzLS43MjZ2LTIuMjAzaDMuOTQ4Yy4yMDQgMCAxLjQ0LjIzNiAxLjQ0IDEuMTYgMCAuNzY3LS45NDggMS4wNDMtMS43MjggMS4wNDNoLTMuNjZ6TTQzLjcgMzEuODk4YzAgLjI5Mi0uMDExLjU4MS0uMDMzLjg2OGgtMS4yYy0uMTIgMC0uMTY4LjA4LS4xNjguMTk3di41NTFjMCAxLjI5OC0uNzMyIDEuNTgtMS4zNzMgMS42NTItLjYxLjA2OC0xLjI4OC0uMjU2LTEuMzcxLS42My0uMzYtMi4wMjUtLjk2LTIuNDU4LTEuOTA4LTMuMjA2IDEuMTc2LS43NDYgMi40LTEuODQ4IDIuNC0zLjMyMyAwLTEuNTkzLTEuMDkyLTIuNTk2LTEuODM2LTMuMDg4LTEuMDQ0LS42ODgtMi4yLS44MjYtMi41MTItLjgyNkgyMy4yODVhMTEuNjg0IDExLjY4NCAwIDAgMSA2LjU0NS0zLjY5NGwxLjQ2MyAxLjUzNWMuMzMxLjM0Ni44OC4zNiAxLjIyNS4wMjhsMS42MzgtMS41NjZhMTEuNzEgMTEuNzEgMCAwIDEgOC4wMDkgNS43MDRsLTEuMTIxIDIuNTMyYS44NjkuODY5IDAgMCAwIC40NCAxLjE0NWwyLjE1OS45NThjLjAzNy4zODMuMDU2Ljc3LjA1NiAxLjE2M3pNMzEuMjk0IDE5LjA5M2EuOTUuOTUgMCAwIDEgMS4zNDQuMDMxLjk1Mi45NTIgMCAwIDEtLjAzMiAxLjM0Ni45NDkuOTQ5IDAgMCAxLTEuMzQzLS4wMzIuOTUzLjk1MyAwIDAgMSAuMDMxLTEuMzQ1em0xMS4xMjMgOC45NTFhLjk1Ljk1IDAgMSAxIDEuNzM3Ljc3Mi45NS45NSAwIDEgMS0xLjczNy0uNzcyeiIvPjwvc3ZnPg==;clipPath=inset(24.67% 24.67% 24.67% 24.67%);" parent="1" vertex="1">
          <mxGeometry x="376.27" y="256.27" width="50" height="50" as="geometry" />
        </mxCell>
        <mxCell id="pVB1kBmUra2NY2BU2NWc-38" value="" style="shape=image;verticalLabelPosition=bottom;labelBackgroundColor=default;verticalAlign=top;aspect=fixed;imageAspect=0;image=https://reactnative.dev/img/header_logo.svg;" parent="1" vertex="1">
          <mxGeometry x="570" y="230" width="43.92" height="40" as="geometry" />
        </mxCell>
        <mxCell id="pVB1kBmUra2NY2BU2NWc-39" value="&lt;font face=&quot;Montserrat&quot; data-font-src=&quot;https://fonts.googleapis.com/css?family=Montserrat&quot; style=&quot;font-size: 11px;&quot;&gt;&lt;b style=&quot;font-size: 11px;&quot;&gt;React Native&lt;/b&gt;&lt;/font&gt;" style="text;html=1;align=center;verticalAlign=middle;resizable=0;points=[];autosize=1;strokeColor=none;fillColor=none;fontSize=11;" parent="1" vertex="1">
          <mxGeometry x="610" y="235" width="90" height="30" as="geometry" />
        </mxCell>
        <mxCell id="8e-Deax2evdPQyoe3i3o-3" value="" style="shape=image;verticalLabelPosition=bottom;labelBackgroundColor=default;verticalAlign=top;aspect=fixed;imageAspect=0;editableCssRules=.*;image=data:image/svg+xml,PHN2ZyB4bWxucz0iaHR0cDovL3d3dy53My5vcmcvMjAwMC9zdmciIGZpbGw9Im5vbmUiIHZpZXdCb3g9IjAuMDAwMDI0NjA2ODk5Mzg3NDM1OTg4IDAgMTEzLjY4Mjk3NTc2OTA0Mjk3IDMyIiBoZWlnaHQ9IjMyIiB3aWR0aD0iMTEzLjY4Mjk3NTc2OTA0Mjk3Ij4mI3hhOzxwYXRoIGZpbGw9ImJsYWNrIiBkPSJNMTQuODA1MSAxMC4zMzM5QzE1LjA2MDYgOS45NTcyOSAxNS4zNDAzIDkuOTA5NCAxNS41NjcyIDkuOTA5NEMxNS43OTQxIDkuOTA5NCAxNi4xNzIxIDkuOTU3MjkgMTYuNDI3NyAxMC4zMzM5QzE4LjQ0MTcgMTMuMTAwMiAyMS43NjYxIDE4LjYxMDggMjQuMjE4NCAyMi42NzU3QzI1LjgxNzYgMjUuMzI2NiAyNy4wNDU5IDI3LjM2MjYgMjcuMjk3OSAyNy42MjE3QzI4LjI0MzkgMjguNTk0NCAyOS41NDEzIDI3Ljk4ODIgMzAuMjk1MiAyNi44ODQ5QzMxLjAzNzQgMjUuNzk4NyAzMS4yNDM0IDI1LjAzNiAzMS4yNDM0IDI0LjIyMjNDMzEuMjQzNCAyMy42NjgxIDIwLjQ5MDcgMy42NzAwNSAxOS40MDc4IDIuMDA1NDZDMTguMzY2NCAwLjQwNDQwNiAxOC4wMjcyIDAgMTYuMjQ0OCAwSDE0LjkxMUMxMy4xMzM5IDAgMTIuODc3MSAwLjQwNDQwNiAxMS44MzU2IDIuMDA1NDZDMTAuNzUyOCAzLjY3MDA1IDIuNDYwNjllLTA1IDIzLjY2ODEgMi40NjA2OWUtMDUgMjQuMjIyM0MyLjQ2MDY5ZS0wNSAyNS4wMzYgMC4yMDYwNyAyNS43OTg3IDAuOTQ4Mjg2IDI2Ljg4NDlDMS43MDIxOCAyNy45ODgyIDIuOTk5NTcgMjguNTk0NCAzLjk0NTU0IDI3LjYyMTdDNC4xOTc1NyAyNy4zNjI2IDUuNDI1ODcgMjUuMzI2NiA3LjAyNTA5IDIyLjY3NTdDOS40NzczNSAxOC42MTA4IDEyLjc5MTEgMTMuMTAwMiAxNC44MDUxIDEwLjMzMzlaIi8+JiN4YTs8cGF0aCBmaWxsPSJibGFjayIgZD0iTTM4LjcxODMgMS43Njc3VjI2LjMxODNINTMuNjc4VjIxLjMzOEg0My44NzkyVjE2LjE0NzNINTIuNTk3VjExLjE2NzFINDMuODc5MlY2Ljc0Nzk2SDUzLjY3OFYxLjc2NzdIMzguNzE4M1oiLz4mI3hhOzxwYXRoIGZpbGw9ImJsYWNrIiBkPSJNNzMuNjM5MyAyNi4zMTgzTDY3LjQzMjMgMTcuNDA5OUw3My4yMjA5IDkuMDk3ODFINjcuMzYyNUw2NC41MDMxIDEzLjE2NjJMNjEuNjc4NSA5LjA5NzgxSDU1Ljc1MDRMNjEuNTM5IDE3LjQ0NUw1NS4zNjY5IDI2LjMxODNINjEuMjI1Mkw2NC40NjgyIDIxLjY1MzdMNjcuNzExMiAyNi4zMTgzSDczLjYzOTNaIi8+JiN4YTs8cGF0aCBmaWxsPSJibGFjayIgZD0iTTg2LjExNTMgOC43NDcwOEM4My43NDQxIDguNzQ3MDggODEuODk1OSA5LjcyOTExIDgwLjcxMDMgMTEuNTE3OFY5LjA5NzgxSDc1Ljc5MzVWMzJIODAuNzEwM1YyMy44OTgzQzgxLjg5NTkgMjUuNjg3IDgzLjc0NDEgMjYuNjY5IDg2LjExNTMgMjYuNjY5QzkwLjU0NCAyNi42NjkgOTQuMDY1OSAyMi42MzU3IDk0LjA2NTkgMTcuNjkwNUM5NC4wNjU5IDEyLjc0NTMgOTAuNTQ0IDguNzQ3MDggODYuMTE1MyA4Ljc0NzA4Wk04NC45OTk1IDIxLjkzNDNDODIuNTkzMyAyMS45MzQzIDgwLjcxMDMgMjAuMTEwNSA4MC43MTAzIDE3LjY5MDVDODAuNzEwMyAxNS4zMDU2IDgyLjU5MzMgMTMuNDQ2OCA4NC45OTk1IDEzLjQ0NjhDODcuMzcwNyAxMy40NDY4IDg5LjI4ODYgMTUuMzQwNyA4OS4yODg2IDE3LjY5MDVDODkuMjg4NiAyMC4wNzU0IDg3LjM3MDcgMjEuOTM0MyA4NC45OTk1IDIxLjkzNDNaIi8+JiN4YTs8cGF0aCBmaWxsPSJibGFjayIgZD0iTTEwNC43OTEgOC43NDcwOEM5OS43MzQ1IDguNzQ3MDggOTUuODk4NiAxMi42MDUgOTUuODk4NiAxNy43MjU2Qzk1Ljg5ODYgMjIuODQ2MSA5OS43MzQ1IDI2LjY2OSAxMDQuNzkxIDI2LjY2OUMxMDkuODEyIDI2LjY2OSAxMTMuNjgzIDIyLjg0NjEgMTEzLjY4MyAxNy43MjU2QzExMy42ODMgMTIuNjA1IDEwOS44MTIgOC43NDcwOCAxMDQuNzkxIDguNzQ3MDhaTTEwNC43OTEgMTMuNDgxOEMxMDcuMDkyIDEzLjQ4MTggMTA4Ljg3MSAxNS4yNzA1IDEwOC44NzEgMTcuNzI1NkMxMDguODcxIDIwLjExMDUgMTA3LjA5MiAyMS45MzQzIDEwNC43OTEgMjEuOTM0M0MxMDIuNDU0IDIxLjkzNDMgMTAwLjcxMSAyMC4xMTA1IDEwMC43MTEgMTcuNzI1NkMxMDAuNzExIDE1LjI3MDUgMTAyLjQ1NCAxMy40ODE4IDEwNC43OTEgMTMuNDgxOFoiLz4mI3hhOzwvc3ZnPg==;" parent="1" vertex="1">
          <mxGeometry x="573" y="290" width="114" height="32" as="geometry" />
        </mxCell>
        <mxCell id="8e-Deax2evdPQyoe3i3o-4" value="" style="shape=image;verticalLabelPosition=bottom;labelBackgroundColor=default;verticalAlign=top;aspect=fixed;imageAspect=0;image=https://mailmeteor.com/logos/assets/PNG/Google_Sheets_Logo_512px.png;" parent="1" vertex="1">
          <mxGeometry x="150" y="76.22" width="50" height="67.55" as="geometry" />
        </mxCell>
        <mxCell id="uDOgKiut3IKMO_JqzU-W-1" value="" style="shape=image;verticalLabelPosition=bottom;labelBackgroundColor=default;verticalAlign=top;aspect=fixed;imageAspect=0;image=https://upload.wikimedia.org/wikipedia/commons/b/b2/Cloudinary_logo.svg;clipPath=inset(0% 75.64% 6.67% 0%);" parent="1" vertex="1">
          <mxGeometry x="280" y="80.51" width="85.85" height="63.26" as="geometry" />
        </mxCell>
        <mxCell id="Hs5S5L__clPShSwQ0FvU-2" value="" style="shape=image;verticalLabelPosition=bottom;labelBackgroundColor=default;verticalAlign=top;aspect=fixed;imageAspect=0;image=https://sbert.net/_static/logo.png;" vertex="1" parent="1">
          <mxGeometry x="56.5" y="211" width="127" height="63.5" as="geometry" />
        </mxCell>
        <mxCell id="Hs5S5L__clPShSwQ0FvU-3" value="" style="shape=image;verticalLabelPosition=bottom;labelBackgroundColor=default;verticalAlign=top;aspect=fixed;imageAspect=0;editableCssRules=.*;image=data:image/svg+xml,PHN2ZyB4bWxucz0iaHR0cDovL3d3dy53My5vcmcvMjAwMC9zdmciIGZpbGw9Im5vbmUiIHZpZXdCb3g9IjE2IDE2IDMyIDMxLjgzMzAwMDE4MzEwNTQ3IiBoZWlnaHQ9IjM5Ny45MTI1MDIyODg4MTgzNiIgd2lkdGg9IjQwMCI+PHBhdGggZmlsbD0idXJsKCNhKSIgZD0iTTMxLjg4NSAxNmMtOC4xMjQgMC03LjYxNyAzLjUyMy03LjYxNyAzLjUyM2wuMDEgMy42NWg3Ljc1MnYxLjA5NUgyMS4xOTdTMTYgMjMuNjc4IDE2IDMxLjg3NmMwIDguMTk2IDQuNTM3IDcuOTA2IDQuNTM3IDcuOTA2aDIuNzA4di0zLjgwNHMtLjE0Ni00LjUzNyA0LjQ2NS00LjUzN2g3LjY4OHM0LjMyLjA3IDQuMzItNC4xNzV2LTcuMDE5UzQwLjM3NCAxNiAzMS44ODUgMTZ6bS00LjI3NSAyLjQ1NGMuNzcxIDAgMS4zOTUuNjI0IDEuMzk1IDEuMzk1cy0uNjI0IDEuMzk1LTEuMzk1IDEuMzk1YTEuMzkzIDEuMzkzIDAgMCAxLTEuMzk1LTEuMzk1YzAtLjc3MS42MjQtMS4zOTUgMS4zOTUtMS4zOTV6Ii8+PHBhdGggZmlsbD0idXJsKCNiKSIgZD0iTTMyLjExNSA0Ny44MzNjOC4xMjQgMCA3LjYxNy0zLjUyMyA3LjYxNy0zLjUyM2wtLjAxLTMuNjVIMzEuOTd2LTEuMDk1aDEwLjgzMlM0OCA0MC4xNTUgNDggMzEuOTU4YzAtOC4xOTctNC41MzctNy45MDYtNC41MzctNy45MDZoLTIuNzA4djMuODAzcy4xNDYgNC41MzctNC40NjUgNC41MzdoLTcuNjg4cy00LjMyLS4wNy00LjMyIDQuMTc1djcuMDE5cy0uNjU2IDQuMjQ3IDcuODMzIDQuMjQ3em00LjI3NS0yLjQ1NGExLjM5MyAxLjM5MyAwIDAgMS0xLjM5NS0xLjM5NWMwLS43Ny42MjQtMS4zOTQgMS4zOTUtMS4zOTRzMS4zOTUuNjIzIDEuMzk1IDEuMzk0YzAgLjc3Mi0uNjI0IDEuMzk1LTEuMzk1IDEuMzk1eiIvPjxkZWZzPjxsaW5lYXJHcmFkaWVudCBncmFkaWVudFVuaXRzPSJ1c2VyU3BhY2VPblVzZSIgeTI9IjM0LjY1OCIgeDI9IjM0Ljg5OCIgeTE9IjE4Ljc4MiIgeDE9IjE5LjA3NSIgaWQ9ImEiPjxzdG9wIHN0b3AtY29sb3I9IiMzODdFQjgiLz48c3RvcCBzdG9wLWNvbG9yPSIjMzY2OTk0IiBvZmZzZXQ9IjEiLz48L2xpbmVhckdyYWRpZW50PjxsaW5lYXJHcmFkaWVudCBncmFkaWVudFVuaXRzPSJ1c2VyU3BhY2VPblVzZSIgeTI9IjQ1LjE2MyIgeDI9IjQ1LjgwMyIgeTE9IjI4Ljg4MiIgeDE9IjI4LjgwOSIgaWQ9ImIiPjxzdG9wIHN0b3AtY29sb3I9IiNGRkUwNTIiLz48c3RvcCBzdG9wLWNvbG9yPSIjRkZDMzMxIiBvZmZzZXQ9IjEiLz48L2xpbmVhckdyYWRpZW50PjwvZGVmcz48L3N2Zz4=;" vertex="1" parent="1">
          <mxGeometry x="117.44999999999999" y="283.76" width="62.55" height="62.24" as="geometry" />
        </mxCell>
      </root>
    </mxGraphModel>
  </diagram>
</mxfile>
